<svg xmlns="http://www.w3.org/2000/svg" width="104.547" height="124.957" viewBox="0 0 104.547 124.957">
  <g id="Group_6801" data-name="Group 6801" transform="translate(1 1)">
    <path id="Path_20771" data-name="Path 20771" d="M9.742,16.682h0c0-.146,0-.29,0-.439a14.931,14.931,0,0,1,29.286-4.408,8.692,8.692,0,0,1,3.72-.84,8.794,8.794,0,0,1,8.723,8.879,9.1,9.1,0,0,1-.576,3.211c.1-.009.181-.021.283-.021a5.7,5.7,0,0,1,0,11.4H9.742a8.893,8.893,0,0,1,0-17.784Z" fill="none" stroke="#0069ff" stroke-width="4"/>
    <path id="Path_20772" data-name="Path 20772" d="M62.271,86.1H38.59l1.289-11.36H60.985Z" transform="translate(9.001 17.658)" fill="#cccbca"/>
    <path id="Path_20773" data-name="Path 20773" d="M67.908,85.234H34.778v-.565a.712.712,0,0,1,.217-.528.756.756,0,0,1,.539-.237H67.156a.76.76,0,0,1,.534.237.712.712,0,0,1,.217.528Z" transform="translate(8.089 19.852)" fill="#e6e5e5"/>
    <path id="Path_20774" data-name="Path 20774" d="M98.991,74.316a1.932,1.932,0,0,1-.563,1.344,1.851,1.851,0,0,1-1.344.544H15.657a1.854,1.854,0,0,1-1.334-.544,1.941,1.941,0,0,1-.561-1.344V68.634H98.991Z" transform="translate(3.056 16.196)" fill="#e6e5e5"/>
    <path id="Path_20775" data-name="Path 20775" d="M98.991,24.971a1.886,1.886,0,0,0-.563-1.331,1.817,1.817,0,0,0-1.344-.554H15.657a1.82,1.82,0,0,0-1.334.554,1.9,1.9,0,0,0-.561,1.331v54.57H98.991Z" transform="translate(3.056 5.289)" fill="none" stroke="#555" stroke-width="3"/>
    <path id="Path_20777" data-name="Path 20777" d="M22.407,86.092l-1.263-1.27,7.749-7.75V44.383h1.79V77.814Z" transform="translate(4.824 10.389)" fill="#0069ff"/>
    <path id="Path_20778" data-name="Path 20778" d="M33.871,110.147H32.082V86.738L40.016,78.8V37.16H41.8V79.543l-7.928,7.939Z" transform="translate(7.443 8.659)" fill="#0069ff"/>
    <path id="Path_20779" data-name="Path 20779" d="M39.807,91.162l-1.263-1.27,3.411-3.413V80.46l3.376-3.387V44.383h1.784V77.814L43.739,81.2v6.02Z" transform="translate(8.99 10.389)" fill="#0069ff"/>
    <path id="Path_20780" data-name="Path 20780" d="M25.307,98.939l-1.264-1.264,5.916-5.918V82.178l5.114-5.107V44.383h1.784V77.814L31.741,82.92V92.5Z" transform="translate(5.518 10.389)" fill="#0069ff"/>
    <path id="Path_20781" data-name="Path 20781" d="M21.019,82.348a3.027,3.027,0,1,1,3.024-3.022A3.023,3.023,0,0,1,21.019,82.348Zm0-4.271a1.244,1.244,0,1,0,1.242,1.251A1.249,1.249,0,0,0,21.019,78.077Z" transform="translate(4.071 18.03)" fill="#0069ff"/>
    <path id="Path_20782" data-name="Path 20782" d="M23.919,92.711a3.027,3.027,0,1,1,3.026-3.022A3.023,3.023,0,0,1,23.919,92.711Zm0-4.259a1.238,1.238,0,1,0,1.243,1.237A1.239,1.239,0,0,0,23.919,88.452Z" transform="translate(4.765 20.512)" fill="#0069ff"/>
    <path id="Path_20783" data-name="Path 20783" d="M33.383,101.369a3.02,3.02,0,1,1,3.026-3.019A3.02,3.02,0,0,1,33.383,101.369Zm0-4.258a1.237,1.237,0,1,0,1.243,1.238A1.239,1.239,0,0,0,33.383,97.111Z" transform="translate(7.032 22.588)" fill="#0069ff"/>
    <path id="Path_20784" data-name="Path 20784" d="M28.7,46.271a3.026,3.026,0,1,1,3.021-3.022A3.027,3.027,0,0,1,28.7,46.271Zm0-4.261a1.236,1.236,0,1,0,1.238,1.238A1.241,1.241,0,0,0,28.7,42.01Z" transform="translate(5.909 9.392)" fill="#0069ff"/>
    <path id="Path_20785" data-name="Path 20785" d="M34.247,46.271a3.026,3.026,0,1,1,3.019-3.022A3.028,3.028,0,0,1,34.247,46.271Zm0-4.261a1.236,1.236,0,1,0,1.236,1.238A1.243,1.243,0,0,0,34.247,42.01Z" transform="translate(7.237 9.392)" fill="#0069ff"/>
    <path id="Path_20786" data-name="Path 20786" d="M45.326,46.271a3.026,3.026,0,1,1,3.027-3.022A3.028,3.028,0,0,1,45.326,46.271Zm0-4.261a1.236,1.236,0,1,0,1.236,1.238A1.24,1.24,0,0,0,45.326,42.01Z" transform="translate(9.89 9.392)" fill="#0069ff"/>
    <path id="Path_20787" data-name="Path 20787" d="M39.786,39.047a3.024,3.024,0,1,1,3.019-3.027A3.033,3.033,0,0,1,39.786,39.047Zm0-4.261a1.239,1.239,0,1,0,1.237,1.235A1.24,1.24,0,0,0,39.786,34.786Z" transform="translate(8.563 7.663)" fill="#0069ff"/>
    <path id="Path_20788" data-name="Path 20788" d="M50.87,46.271a3.026,3.026,0,1,1,3.019-3.022A3.028,3.028,0,0,1,50.87,46.271Zm0-4.261A1.236,1.236,0,1,0,52.1,43.248,1.239,1.239,0,0,0,50.87,42.01Z" transform="translate(11.217 9.392)" fill="#0069ff"/>
    <path id="Path_20789" data-name="Path 20789" d="M56.4,39.047a3.024,3.024,0,1,1,3.024-3.027A3.026,3.026,0,0,1,56.4,39.047Zm0-4.261a1.239,1.239,0,1,0,1.239,1.235A1.239,1.239,0,0,0,56.4,34.786Z" transform="translate(12.544 7.663)" fill="#0069ff"/>
    <path id="Path_20790" data-name="Path 20790" d="M61.946,46.271a3.026,3.026,0,1,1,3.03-3.022A3.024,3.024,0,0,1,61.946,46.271Zm0-4.261a1.236,1.236,0,1,0,1.235,1.238A1.241,1.241,0,0,0,61.946,42.01Z" transform="translate(13.871 9.392)" fill="#0069ff"/>
    <path id="Path_20791" data-name="Path 20791" d="M67.486,46.271a3.026,3.026,0,1,1,3.034-3.022A3.024,3.024,0,0,1,67.486,46.271Zm0-4.261a1.236,1.236,0,1,0,1.239,1.238A1.24,1.24,0,0,0,67.486,42.01Z" transform="translate(15.198 9.392)" fill="#0069ff"/>
    <path id="Path_20792" data-name="Path 20792" d="M38.419,86.434a3.026,3.026,0,1,1,3.027-3.019A3.021,3.021,0,0,1,38.419,86.434Zm0-4.269a1.243,1.243,0,1,0,1.244,1.249A1.24,1.24,0,0,0,38.419,82.165Z" transform="translate(8.238 19.009)" fill="#0069ff"/>
    <path id="Path_20793" data-name="Path 20793" d="M74.458,86.092l-8.273-8.278V44.383h1.781V77.071l7.752,7.75Z" transform="translate(15.609 10.389)" fill="#0069ff"/>
    <path id="Path_20794" data-name="Path 20794" d="M64.821,110.147H63.039V87.482L55.1,79.543V37.16h1.785V78.8l7.935,7.938Z" transform="translate(12.955 8.659)" fill="#0069ff"/>
    <path id="Path_20795" data-name="Path 20795" d="M56.873,91.162l-3.925-3.94V81.2l-3.385-3.39V44.383h1.781V77.071L54.73,80.46v6.018l3.4,3.413Z" transform="translate(11.629 10.389)" fill="#0069ff"/>
    <path id="Path_20796" data-name="Path 20796" d="M72.2,98.939,65.751,92.5V82.92l-5.107-5.107V44.383h1.784V77.071l5.116,5.107v9.579l5.912,5.918Z" transform="translate(14.282 10.389)" fill="#0069ff"/>
    <path id="Path_20797" data-name="Path 20797" d="M75.164,82.345A3.026,3.026,0,1,1,78.2,79.325,3.022,3.022,0,0,1,75.164,82.345Zm0-4.269a1.243,1.243,0,1,0,1.241,1.248A1.248,1.248,0,0,0,75.164,78.077Z" transform="translate(17.036 18.03)" fill="#0069ff"/>
    <path id="Path_20798" data-name="Path 20798" d="M72.27,92.709a3.026,3.026,0,1,1,3.021-3.022A3.025,3.025,0,0,1,72.27,92.709Zm0-4.258a1.237,1.237,0,1,0,1.236,1.236A1.239,1.239,0,0,0,72.27,88.452Z" transform="translate(16.343 20.512)" fill="#0069ff"/>
    <path id="Path_20799" data-name="Path 20799" d="M62.806,101.369a3.02,3.02,0,1,1,3.019-3.019A3.022,3.022,0,0,1,62.806,101.369Zm0-4.258a1.237,1.237,0,1,0,1.236,1.238A1.239,1.239,0,0,0,62.806,97.111Z" transform="translate(14.077 22.588)" fill="#0069ff"/>
    <path id="Path_20800" data-name="Path 20800" d="M57.761,86.431A3.024,3.024,0,1,1,60.8,83.4,3.025,3.025,0,0,1,57.761,86.431Zm0-4.266A1.243,1.243,0,1,0,59.013,83.4,1.239,1.239,0,0,0,57.761,82.164Z" transform="translate(12.87 19.009)" fill="#0069ff"/>
  </g>
</svg>
