<svg xmlns="http://www.w3.org/2000/svg" xmlns:xlink="http://www.w3.org/1999/xlink" width="692.83" height="417.024" viewBox="0 0 692.83 417.024">
  <defs>
    <linearGradient id="linear-gradient" x1="0.717" y1="0.504" x2="-0.292" y2="0.511" gradientUnits="objectBoundingBox">
      <stop offset="0" stop-color="#b37cff"/>
      <stop offset="1" stop-color="#f895e7"/>
    </linearGradient>
    <linearGradient id="linear-gradient-2" x1="0.706" y1="0.484" x2="-0.303" y2="0.49" xlink:href="#linear-gradient"/>
    <linearGradient id="linear-gradient-3" y1="0.5" x2="1" y2="0.5" gradientUnits="objectBoundingBox">
      <stop offset="0" stop-color="#5ab6ff"/>
      <stop offset="1" stop-color="#2f68e3"/>
    </linearGradient>
    <linearGradient id="linear-gradient-7" x1="2.154" y1="-0.053" x2="-1.621" y2="1.53" gradientUnits="objectBoundingBox">
      <stop offset="0" stop-color="#fdf53f"/>
      <stop offset="1" stop-color="#d93c65"/>
    </linearGradient>
    <linearGradient id="linear-gradient-8" x1="1.566" y1="0.469" x2="-0.291" y2="0.539" gradientUnits="objectBoundingBox">
      <stop offset="0" stop-color="#53d8ff"/>
      <stop offset="1" stop-color="#3840f7"/>
    </linearGradient>
    <linearGradient id="linear-gradient-9" x1="1.165" y1="0.49" x2="-0.581" y2="0.529" xlink:href="#linear-gradient-8"/>
    <linearGradient id="linear-gradient-10" x1="1.133" y1="0.422" x2="-0.643" y2="0.683" xlink:href="#linear-gradient-7"/>
    <linearGradient id="linear-gradient-11" x1="0.725" y1="0.484" x2="-12.453" y2="1.4" xlink:href="#linear-gradient-7"/>
    <linearGradient id="linear-gradient-12" x1="-60.331" y1="19.051" x2="-57.629" y2="19.051" gradientUnits="objectBoundingBox">
      <stop offset="0" stop-color="#2b3582"/>
      <stop offset="1" stop-color="#150e42"/>
    </linearGradient>
    <linearGradient id="linear-gradient-13" x1="-0.251" y1="1.791" x2="-0.753" y2="1.009" gradientUnits="objectBoundingBox">
      <stop offset="0" stop-color="#18459f"/>
      <stop offset="1" stop-color="#2874b5"/>
    </linearGradient>
    <linearGradient id="linear-gradient-14" x1="62.245" y1="-16.033" x2="62.781" y2="-16.033" xlink:href="#linear-gradient-12"/>
    <linearGradient id="linear-gradient-15" x1="-10.198" y1="43.584" x2="-7.496" y2="43.584" xlink:href="#linear-gradient-12"/>
    <linearGradient id="linear-gradient-16" x1="57.117" y1="3.781" x2="56.615" y2="2.999" xlink:href="#linear-gradient-13"/>
    <linearGradient id="linear-gradient-17" x1="8.194" y1="13.014" x2="8.73" y2="13.014" xlink:href="#linear-gradient-12"/>
    <linearGradient id="linear-gradient-19" x1="0.979" y1="0.471" x2="-0.62" y2="0.672" xlink:href="#linear-gradient-3"/>
    <linearGradient id="linear-gradient-20" x1="18.758" y1="1.678" x2="20.281" y2="4.366" gradientUnits="objectBoundingBox">
      <stop offset="0" stop-color="#cb236d"/>
      <stop offset="1" stop-color="#4c246d"/>
    </linearGradient>
    <linearGradient id="linear-gradient-21" x1="1.063" y1="-0.44" x2="0.221" y2="0.966" gradientUnits="objectBoundingBox">
      <stop offset="0" stop-color="#cb236d"/>
      <stop offset="0.072" stop-color="#c2236d"/>
      <stop offset="1" stop-color="#4c246d"/>
    </linearGradient>
    <linearGradient id="linear-gradient-22" x1="0.04" y1="1.594" x2="0.638" y2="0.173" xlink:href="#linear-gradient-21"/>
    <linearGradient id="linear-gradient-23" x1="0" y1="0.5" x2="1" y2="0.5" xlink:href="#linear-gradient-8"/>
    <linearGradient id="linear-gradient-24" x1="0" y1="0.5" x2="1" y2="0.5" xlink:href="#linear-gradient-12"/>
    <linearGradient id="linear-gradient-25" y1="0.5" x2="1" y2="0.5" gradientUnits="objectBoundingBox">
      <stop offset="0" stop-color="#f9b776"/>
      <stop offset="1" stop-color="#f47960"/>
    </linearGradient>
    <linearGradient id="linear-gradient-26" x1="0" y1="0.5" x2="1" y2="0.5" xlink:href="#linear-gradient-8"/>
    <linearGradient id="linear-gradient-28" x1="0" y1="0.5" x2="1" y2="0.5" xlink:href="#linear-gradient-25"/>
    <linearGradient id="linear-gradient-29" x1="-0.289" y1="1.193" x2="1.375" y2="0.002" xlink:href="#linear-gradient-12"/>
    <linearGradient id="linear-gradient-30" x1="1.314" y1="-0.062" x2="-2.293" y2="2.028" xlink:href="#linear-gradient-7"/>
    <linearGradient id="linear-gradient-31" x1="-1.502" y1="5.021" x2="-1.144" y2="4.213" xlink:href="#linear-gradient-8"/>
    <linearGradient id="linear-gradient-32" x1="1.381" y1="0.1" x2="-1.008" y2="1.142" xlink:href="#linear-gradient-25"/>
    <linearGradient id="linear-gradient-33" x1="2.844" y1="-0.503" x2="-5.081" y2="3.117" xlink:href="#linear-gradient-7"/>
    <linearGradient id="linear-gradient-34" x1="2.221" y1="-0.121" x2="-8.39" y2="4.13" xlink:href="#linear-gradient-7"/>
    <linearGradient id="linear-gradient-36" x1="0.504" y1="-0.004" x2="0.489" y2="1.888" xlink:href="#linear-gradient-25"/>
    <linearGradient id="linear-gradient-38" x1="0" y1="0.5" x2="1" y2="0.5" xlink:href="#linear-gradient"/>
    <linearGradient id="linear-gradient-40" x1="-29.08" y1="98.122" x2="-30.6" y2="99.46" xlink:href="#linear-gradient-25"/>
    <linearGradient id="linear-gradient-41" x1="-16.781" y1="62.555" x2="-15.758" y2="62.555" xlink:href="#linear-gradient-12"/>
    <linearGradient id="linear-gradient-42" x1="-83.259" y1="279.945" x2="-79.969" y2="277.589" xlink:href="#linear-gradient-25"/>
    <linearGradient id="linear-gradient-43" x1="1.114" y1="-1.222" x2="-0.58" y2="3.819" xlink:href="#linear-gradient-25"/>
    <linearGradient id="linear-gradient-45" x1="14.934" y1="0.23" x2="-65.866" y2="1.744" xlink:href="#linear-gradient-12"/>
    <linearGradient id="linear-gradient-46" x1="20.835" y1="0.119" x2="-59.965" y2="1.633" xlink:href="#linear-gradient-12"/>
    <linearGradient id="linear-gradient-47" y1="0.5" x2="1" y2="0.5" gradientUnits="objectBoundingBox">
      <stop offset="0" stop-color="#9cfffb"/>
      <stop offset="1" stop-color="#9bfffa"/>
    </linearGradient>
    <linearGradient id="linear-gradient-49" x1="0" x2="1" xlink:href="#linear-gradient-47"/>
    <linearGradient id="linear-gradient-50" x1="0" x2="1" xlink:href="#linear-gradient-47"/>
    <linearGradient id="linear-gradient-55" x1="352.283" y1="-0.484" x2="349.448" y2="6.012" xlink:href="#linear-gradient-20"/>
    <linearGradient id="linear-gradient-56" x1="1392.138" y1="0.5" x2="1393.138" y2="0.5" xlink:href="#linear-gradient-25"/>
    <linearGradient id="linear-gradient-57" x1="420.353" y1="0.5" x2="421.353" y2="0.5" xlink:href="#linear-gradient-12"/>
    <linearGradient id="linear-gradient-58" x1="866.528" y1="-2.223" x2="859.51" y2="5.384" xlink:href="#linear-gradient-20"/>
    <linearGradient id="linear-gradient-59" x1="1603.931" y1="0.5" x2="1604.931" y2="0.5" xlink:href="#linear-gradient-25"/>
    <linearGradient id="linear-gradient-60" x1="295.462" y1="0.5" x2="296.462" y2="0.5" xlink:href="#linear-gradient-12"/>
    <linearGradient id="linear-gradient-61" x1="1.043" y1="0.417" x2="1.759" y2="1.056" gradientUnits="objectBoundingBox">
      <stop offset="0" stop-color="#7c27dd"/>
      <stop offset="1" stop-color="#2b41d9"/>
    </linearGradient>
    <linearGradient id="linear-gradient-62" x1="4.1" y1="0.285" x2="5.467" y2="1.477" xlink:href="#linear-gradient-25"/>
    <linearGradient id="linear-gradient-63" x1="-177.913" y1="1.605" x2="-175.913" y2="4.278" xlink:href="#linear-gradient-25"/>
    <linearGradient id="linear-gradient-64" x1="1990.544" y1="0.706" x2="1992.563" y2="-1.072" xlink:href="#linear-gradient-25"/>
    <linearGradient id="linear-gradient-65" x1="356.572" y1="1.159" x2="358.369" y2="2.794" xlink:href="#linear-gradient-61"/>
    <linearGradient id="linear-gradient-66" x1="214.015" y1="0.5" x2="215.015" y2="0.5" xlink:href="#linear-gradient-25"/>
    <linearGradient id="linear-gradient-67" x1="201.878" y1="-0.062" x2="202.391" y2="2.428" xlink:href="#linear-gradient-47"/>
    <linearGradient id="linear-gradient-68" x1="1058.909" y1="-3.497" x2="1058.336" y2="1.805" xlink:href="#linear-gradient-8"/>
    <linearGradient id="linear-gradient-69" x1="554.647" y1="-1.235" x2="554.503" y2="1.146" xlink:href="#linear-gradient-8"/>
    <linearGradient id="linear-gradient-70" x1="690.665" y1="0.5" x2="691.665" y2="0.5" xlink:href="#linear-gradient-25"/>
    <linearGradient id="linear-gradient-71" x1="543.65" y1="0.5" x2="544.65" y2="0.5" xlink:href="#linear-gradient-25"/>
    <linearGradient id="linear-gradient-72" x1="-11.671" y1="201.71" x2="-11.992" y2="200.644" xlink:href="#linear-gradient-25"/>
    <linearGradient id="linear-gradient-73" x1="-9.203" y1="153.213" x2="-8.998" y2="154.392" xlink:href="#linear-gradient-12"/>
    <linearGradient id="linear-gradient-74" x1="-41.206" y1="975.396" x2="-42.149" y2="970.749" xlink:href="#linear-gradient-25"/>
    <linearGradient id="linear-gradient-75" x1="-0.552" y1="-3.273" x2="0.425" y2="-3.273" xlink:href="#linear-gradient-20"/>
    <linearGradient id="linear-gradient-76" x1="-0.591" y1="-5.153" x2="0.385" y2="-5.153" xlink:href="#linear-gradient-20"/>
    <linearGradient id="linear-gradient-77" x1="-14.977" y1="-86.03" x2="-13.977" y2="-86.03" xlink:href="#linear-gradient-20"/>
    <linearGradient id="linear-gradient-78" x1="-17.574" y1="-191.259" x2="-16.573" y2="-191.259" xlink:href="#linear-gradient-20"/>
    <linearGradient id="linear-gradient-79" x1="-2.748" y1="-76.966" x2="-1.743" y2="-76.966" xlink:href="#linear-gradient-20"/>
    <linearGradient id="linear-gradient-80" x1="3.872" y1="12.926" x2="4.984" y2="12.926" xlink:href="#linear-gradient-20"/>
    <linearGradient id="linear-gradient-81" x1="0" y1="0.5" x2="1" y2="0.5" xlink:href="#linear-gradient-20"/>
    <linearGradient id="linear-gradient-82" x1="0" y1="0.5" x2="1" y2="0.5" xlink:href="#linear-gradient-20"/>
    <linearGradient id="linear-gradient-83" x1="0" y1="0.5" x2="1" y2="0.5" xlink:href="#linear-gradient-20"/>
    <linearGradient id="linear-gradient-84" x1="5.758" y1="16.835" x2="6.865" y2="16.835" xlink:href="#linear-gradient-20"/>
    <linearGradient id="linear-gradient-85" x1="10.209" y1="5.385" x2="11.418" y2="5.385" xlink:href="#linear-gradient-20"/>
    <linearGradient id="linear-gradient-86" x1="18.04" y1="26.666" x2="18.947" y2="26.666" xlink:href="#linear-gradient-20"/>
    <linearGradient id="linear-gradient-87" x1="92.969" y1="39.608" x2="93.579" y2="39.608" xlink:href="#linear-gradient-20"/>
    <linearGradient id="linear-gradient-88" x1="1507.115" y1="552.711" x2="1508.115" y2="552.711" xlink:href="#linear-gradient-20"/>
    <linearGradient id="linear-gradient-89" x1="410.424" y1="279.985" x2="410.549" y2="279.985" xlink:href="#linear-gradient-20"/>
    <linearGradient id="linear-gradient-90" x1="-141.599" y1="197.983" x2="-146.639" y2="194.589" xlink:href="#linear-gradient-8"/>
    <linearGradient id="linear-gradient-91" x1="-30.94" y1="41.412" x2="-32.193" y2="40.018" xlink:href="#linear-gradient-8"/>
    <linearGradient id="linear-gradient-92" x1="-47.075" y1="40.62" x2="-48.659" y2="39.984" xlink:href="#linear-gradient-8"/>
    <linearGradient id="linear-gradient-93" x1="-352.796" y1="228.153" x2="-347.32" y2="227.298" xlink:href="#linear-gradient-8"/>
    <linearGradient id="linear-gradient-94" x1="-0.15" y1="3.016" x2="0.907" y2="3.593" xlink:href="#linear-gradient"/>
    <linearGradient id="linear-gradient-95" x1="0.028" y1="5.011" x2="1.085" y2="5.588" xlink:href="#linear-gradient"/>
    <linearGradient id="linear-gradient-100" x1="0.636" y1="0.334" x2="3.191" y2="-1.285" gradientUnits="objectBoundingBox">
      <stop offset="0" stop-color="#ce1567"/>
      <stop offset="1" stop-color="#7a1dbc"/>
    </linearGradient>
  </defs>
  <g id="Group_6791" data-name="Group 6791" transform="translate(-115.204 -107.928)">
    <g id="Group_6727" data-name="Group 6727" transform="translate(118.317 119.585)">
      <path id="Path_20568" data-name="Path 20568" d="M782.816,357.929,768.057,340.4s-66.25-60.97-68.657-129.715-31.731-78.007-101.888-82.377C538.2,124.61,469.63,114.209,414.55,153.18A133.09,133.09,0,0,1,332.74,177.9l-63.967-2.343A132.451,132.451,0,0,0,183.425,203c-36.768,28.075-76.347,79.776-60.122,167.771a284.952,284.952,0,0,1,4.785,45.823l.7,37.384c.611,32.83,25.261,59.352,56.033,60.076l480.111,11.3c49.357,1.161,96.789-19.972,130.669-58.191a55.494,55.494,0,0,0,13.67-37.811A114.376,114.376,0,0,0,782.816,357.929Z" transform="translate(-119.561 -124.241)" opacity="0.26" fill="url(#linear-gradient)"/>
      <path id="Path_20569" data-name="Path 20569" d="M771.765,362.911l-13.878-16.116s-62.307-56.044-64.545-119.261-29.823-71.724-95.829-75.715c-55.806-3.375-120.315-12.913-172.152,22.947a127.344,127.344,0,0,1-76.982,22.765L288.195,195.4a126.643,126.643,0,0,0-80.311,25.276c-34.6,25.832-72.33,73.4-57.1,154.318a255.794,255.794,0,0,1,4.019,42.145l.64,34.378c.562,30.192,24.21,54.562,53.162,55.216l451.945,10.2c46.437,1.048,91.189-18.407,123.081-53.567a50.442,50.442,0,0,0,12.934-34.778A103.638,103.638,0,0,0,771.765,362.911Z" transform="translate(-127.482 -131.054)" opacity="0.26" fill="url(#linear-gradient-2)"/>
    </g>
    <g id="Group_6728" data-name="Group 6728" transform="translate(244.005 176.411)" opacity="0.5">
      <path id="Path_20570" data-name="Path 20570" d="M447.319,215.082h-146.2a5.657,5.657,0,0,1-5.657-5.657h0a5.658,5.658,0,0,1,5.657-5.657h146.2a5.658,5.658,0,0,1,5.657,5.657h0A5.657,5.657,0,0,1,447.319,215.082Z" transform="translate(-295.457 -203.768)" opacity="0.2" fill="url(#linear-gradient-3)"/>
      <path id="Path_20571" data-name="Path 20571" d="M471.9,246.1H325.7a5.658,5.658,0,0,1-5.658-5.658h0a5.658,5.658,0,0,1,5.658-5.657H471.9a5.658,5.658,0,0,1,5.658,5.657h0A5.658,5.658,0,0,1,471.9,246.1Z" transform="translate(-302.474 -212.62)" opacity="0.53" fill="url(#linear-gradient-3)"/>
      <path id="Path_20572" data-name="Path 20572" d="M430.327,308.122H325.7a5.657,5.657,0,0,1-5.658-5.657h0a5.658,5.658,0,0,1,5.658-5.657H430.327a5.658,5.658,0,0,1,5.657,5.657h0A5.657,5.657,0,0,1,430.327,308.122Z" transform="translate(-302.474 -230.325)" opacity="0.53" fill="url(#linear-gradient-3)"/>
      <path id="Path_20573" data-name="Path 20573" d="M494.849,277.109h-146.2a5.658,5.658,0,0,1-5.657-5.657h0a5.657,5.657,0,0,1,5.657-5.657h146.2a5.657,5.657,0,0,1,5.657,5.657h0A5.657,5.657,0,0,1,494.849,277.109Z" transform="translate(-309.024 -221.473)" opacity="0.2" fill="url(#linear-gradient-3)"/>
    </g>
    <g id="Group_6729" data-name="Group 6729" transform="translate(577.505 192.685)">
      <path id="Path_20574" data-name="Path 20574" d="M989.316,250.87l11.942.748a11.089,11.089,0,0,1,10.395,11.231l-4.169,283.5A11.635,11.635,0,0,1,995.6,557.807l-82.032-1.751Z" transform="translate(-805.391 -233.486)" fill="url(#linear-gradient-7)"/>
      <path id="Path_20575" data-name="Path 20575" d="M819.071,248.274l151.443-7.321a5.371,5.371,0,0,1,5.628,5.536L966.8,538.618a11.229,11.229,0,0,1-11.674,10.861L848.681,545.2Z" transform="translate(-778.417 -230.654)" fill="url(#linear-gradient-8)"/>
      <path id="Path_20576" data-name="Path 20576" d="M830.385,252.989l133.2-17a5.646,5.646,0,0,1,6.36,5.725L963.464,536.36a7.8,7.8,0,0,1-7.575,7.63L857.9,546.857Z" transform="translate(-781.647 -229.227)" fill="url(#linear-gradient-9)"/>
      <path id="Path_20577" data-name="Path 20577" d="M775.907,235.658l146.032-9.091a12.644,12.644,0,0,1,13.43,12.62V540.066a11.049,11.049,0,0,1-11.048,11.048H789.683A11.955,11.955,0,0,1,777.745,539.8L762.2,251.056A14.639,14.639,0,0,1,775.907,235.658Z" transform="translate(-762.178 -226.542)" fill="url(#linear-gradient-10)"/>
      <rect id="Rectangle_1251" data-name="Rectangle 1251" width="22.701" height="89.787" rx="11.35" transform="translate(161.841 28.732)" fill="url(#linear-gradient-11)"/>
    </g>
    <g id="Group_6733" data-name="Group 6733" transform="translate(115.204 230.053)">
      <g id="Group_6730" data-name="Group 6730" transform="translate(65.492 1.823)">
        <path id="Path_20578" data-name="Path 20578" d="M223.9,450.87a3.668,3.668,0,0,1-6.034-.825c-6.359-12.891-21.042-50.967-.349-96.07,17.475-38.087,23.33-60.4,25.287-70.714a2.3,2.3,0,0,1,4.333-.566C257.759,304.765,286.355,380.08,223.9,450.87Z" transform="translate(-206.858 -281.39)" fill="url(#linear-gradient-12)"/>
        <path id="Path_20579" data-name="Path 20579" d="M225.237,469.139a1.43,1.43,0,0,1-1.429-1.4c-.011-.637-.867-64.374,21.069-118.507a1.429,1.429,0,0,1,2.649,1.073c-21.72,53.6-20.87,116.752-20.859,117.383a1.428,1.428,0,0,1-1.4,1.454Z" transform="translate(-211.694 -300.499)" fill="#2a6fae"/>
      </g>
      <g id="Group_6731" data-name="Group 6731" transform="translate(12.047)">
        <path id="Path_20580" data-name="Path 20580" d="M135.7,279.658c-3.525,28.355-21.157,203.2,71.836,259a4.412,4.412,0,0,0,6.665-3.466c1.509-20.84,2.451-87.065-35.8-165.226-27.6-56.393-37.712-81.815-40.9-90.512A.933.933,0,0,0,135.7,279.658Z" transform="translate(-132.064 -278.838)" fill="url(#linear-gradient-13)"/>
        <path id="Path_20581" data-name="Path 20581" d="M219.758,560.8a1.429,1.429,0,0,1-1.257-.747c-24.766-45.531-41.677-95.4-51.5-129.217-10.472-36.042-15.993-64.452-15.417-66.287a1.429,1.429,0,0,1,2.775.655c0,4.674,20.025,107.756,66.655,193.485a1.43,1.43,0,0,1-1.254,2.112ZM154.31,365.4v0Z" transform="translate(-137.624 -303.016)" fill="#24286c"/>
      </g>
      <g id="Group_6732" data-name="Group 6732" transform="translate(0 170.852)">
        <path id="Path_20582" data-name="Path 20582" d="M201.74,613.655c-18.837,2.041-73.785-.222-86.509-92.766a2.579,2.579,0,0,1,4.6-1.931c7.552,9.865,21.044,26.691,33.2,32.526,37.669,18.078,49.781,43.177,53.506,54.774A5.684,5.684,0,0,1,201.74,613.655Z" transform="translate(-115.204 -517.94)" fill="url(#linear-gradient-14)"/>
        <path id="Path_20583" data-name="Path 20583" d="M208.991,622.65a1.445,1.445,0,0,1-.51-.094c-51.438-19.652-74.734-64.344-74.964-64.793a1.429,1.429,0,0,1,2.546-1.3c.224.439,23.059,44.176,73.438,63.423a1.43,1.43,0,0,1-.51,2.765Z" transform="translate(-120.387 -528.713)" fill="#2a6fae"/>
      </g>
    </g>
    <g id="Group_6737" data-name="Group 6737" transform="translate(575.331 183.747)">
      <g id="Group_6734" data-name="Group 6734" transform="translate(0 1.823)">
        <path id="Path_20584" data-name="Path 20584" d="M798.192,386.066a3.668,3.668,0,0,0,6.034-.825c6.359-12.891,21.041-50.967.348-96.07-17.474-38.087-23.33-60.4-25.286-70.714a2.3,2.3,0,0,0-4.334-.566C764.336,239.96,735.74,315.276,798.192,386.066Z" transform="translate(-759.136 -216.586)" fill="url(#linear-gradient-15)"/>
        <path id="Path_20585" data-name="Path 20585" d="M809.75,404.335h-.026a1.43,1.43,0,0,1-1.4-1.454c.011-.632.854-63.8-20.858-117.382a1.429,1.429,0,1,1,2.649-1.073c21.936,54.133,21.079,117.868,21.067,118.506A1.429,1.429,0,0,1,809.75,404.335Z" transform="translate(-767.191 -235.695)" fill="#2a6fae"/>
      </g>
      <g id="Group_6735" data-name="Group 6735" transform="translate(25.984)">
        <path id="Path_20586" data-name="Path 20586" d="M875.787,214.854c3.526,28.356,21.157,203.2-71.835,259a4.412,4.412,0,0,1-6.665-3.466c-1.509-20.84-2.451-87.065,35.8-165.225,27.6-56.393,37.712-81.815,40.9-90.512A.933.933,0,0,1,875.787,214.854Z" transform="translate(-795.857 -214.034)" fill="url(#linear-gradient-16)"/>
        <path id="Path_20587" data-name="Path 20587" d="M796.927,495.992a1.43,1.43,0,0,1-1.254-2.112c46.627-85.721,66.658-188.811,66.656-193.485a1.429,1.429,0,0,1,2.775-.654c.575,1.836-4.947,30.247-15.418,66.287-9.826,33.817-26.737,83.686-51.5,129.217A1.429,1.429,0,0,1,796.927,495.992Zm65.449-195.4v0Zm0,0v0Zm-.046-.237Z" transform="translate(-795.499 -238.212)" fill="#24286c"/>
      </g>
      <g id="Group_6736" data-name="Group 6736" transform="translate(29.982 170.852)">
        <path id="Path_20588" data-name="Path 20588" d="M806.171,548.851c18.836,2.041,73.785-.223,86.508-92.765a2.579,2.579,0,0,0-4.6-1.931c-7.551,9.865-21.044,26.691-33.2,32.526-37.669,18.078-49.782,43.177-53.506,54.773A5.684,5.684,0,0,0,806.171,548.851Z" transform="translate(-801.094 -453.135)" fill="url(#linear-gradient-17)"/>
        <path id="Path_20589" data-name="Path 20589" d="M804.733,557.846a1.429,1.429,0,0,1-.51-2.765c50.423-19.264,73.214-62.983,73.437-63.422a1.429,1.429,0,0,1,2.546,1.3c-.229.449-23.526,45.142-74.963,64.793A1.428,1.428,0,0,1,804.733,557.846Z" transform="translate(-801.724 -463.909)" fill="#2a6fae"/>
      </g>
    </g>
    <g id="Group_6738" data-name="Group 6738" transform="translate(147.398 175.075)">
      <path id="Path_20590" data-name="Path 20590" d="M624.5,351.652a3.706,3.706,0,0,1-3.619-3.636c-.37-20.357-6.72-121.438-95.739-142.561-99.105-23.517-144.458,77.268-144.458,77.268S258.058,235.69,234.541,361.672c-76.887,18.452-96.863,118.863-46.854,167.928a42.984,42.984,0,0,0,29.727,12.3l481.508,4.337A31.7,31.7,0,0,0,729.6,523.566C744.642,472.8,764.356,354.927,624.5,351.652Z" transform="translate(-160.258 -201.898)" fill="url(#linear-gradient-3)"/>
      <path id="Path_20591" data-name="Path 20591" d="M619.112,358.63A3.707,3.707,0,0,1,615.5,355c-.394-19.525-6.682-113.253-90.523-132.9-93.711-21.961-136.6,72.156-136.6,72.156s-115.947-43.921-138.184,73.725c-72,17.066-91.223,109.207-45.646,155.487A43,43,0,0,0,234.8,536.3l453.275,4.032a31.7,31.7,0,0,0,30.7-22.758C732.915,469.361,749.691,361.755,619.112,358.63Z" transform="translate(-165.88 -206.717)" fill="url(#linear-gradient-19)"/>
    </g>
    <g id="Group_6751" data-name="Group 6751" transform="translate(305.809 247.957)">
      <g id="Group_6742" data-name="Group 6742" transform="translate(62.208 25.468)">
        <g id="Group_6739" data-name="Group 6739" opacity="0.64">
          <path id="Path_20592" data-name="Path 20592" d="M475.094,510.112a1.071,1.071,0,0,1-1.028-.771q-.405-1.383-.771-2.784a1.072,1.072,0,1,1,2.074-.541q.357,1.369.755,2.722a1.072,1.072,0,0,1-.727,1.33A1.083,1.083,0,0,1,475.094,510.112Z" transform="translate(-470.22 -386.827)" fill="#fff"/>
          <path id="Path_20593" data-name="Path 20593" d="M471.267,451.264a1.073,1.073,0,0,1-1.058-.9c-.294-1.834-.537-3.7-.724-5.554a1.072,1.072,0,1,1,2.132-.214c.182,1.81.421,3.636.709,5.428a1.072,1.072,0,0,1-1.06,1.242Zm-1.188-14.476a1.073,1.073,0,0,1-1.072-1.068v-.5c0-1.688.045-3.4.134-5.095a1.06,1.06,0,0,1,1.127-1.014,1.072,1.072,0,0,1,1.014,1.127c-.087,1.654-.131,3.331-.131,4.987v.488a1.072,1.072,0,0,1-1.067,1.077Zm1.027-14.486a1.072,1.072,0,0,1-1.062-1.228c.272-1.843.6-3.7.979-5.513a1.072,1.072,0,0,1,2.1.437c-.369,1.775-.692,3.588-.957,5.389A1.073,1.073,0,0,1,471.105,422.3Zm3.214-14.159a1.073,1.073,0,0,1-1.023-1.389c.548-1.77,1.158-3.552,1.814-5.3a1.072,1.072,0,1,1,2.006.753c-.64,1.706-1.236,3.448-1.773,5.178A1.072,1.072,0,0,1,474.319,408.144Zm5.357-13.5a1.071,1.071,0,0,1-.962-1.543c.818-1.672,1.7-3.341,2.613-4.96a1.072,1.072,0,1,1,1.866,1.055c-.894,1.583-1.753,3.214-2.555,4.848A1.071,1.071,0,0,1,479.677,394.648Zm7.38-12.517a1.071,1.071,0,0,1-.878-1.686c1.063-1.521,2.187-3.034,3.342-4.5a1.072,1.072,0,0,1,1.683,1.328c-1.13,1.431-2.229,2.91-3.268,4.4A1.07,1.07,0,0,1,487.056,382.131Zm9.208-11.234a1.072,1.072,0,0,1-.775-1.813c1.282-1.34,2.624-2.662,3.988-3.932a1.072,1.072,0,1,1,1.46,1.57c-1.333,1.241-2.645,2.535-3.9,3.844A1.069,1.069,0,0,1,496.265,370.9Zm10.813-9.7a1.072,1.072,0,0,1-.653-1.921c1.478-1.134,3-2.237,4.537-3.278a1.072,1.072,0,1,1,1.2,1.774c-1.5,1.018-2.992,2.1-4.437,3.2A1.066,1.066,0,0,1,507.078,361.2Zm12.162-7.933a1.072,1.072,0,0,1-.516-2.013c1.628-.892,3.3-1.749,4.983-2.545a1.072,1.072,0,0,1,.918,1.937c-1.64.778-3.278,1.615-4.871,2.487A1.059,1.059,0,0,1,519.24,353.267Zm89.069-.9a1.072,1.072,0,0,1-.5-.121c-1.61-.841-3.267-1.645-4.925-2.39a1.072,1.072,0,1,1,.878-1.955c1.7.762,3.393,1.585,5.039,2.445a1.072,1.072,0,0,1-.5,2.022Zm-75.843-5.083a1.072,1.072,0,0,1-.364-2.08c1.743-.631,3.529-1.219,5.309-1.748a1.072,1.072,0,0,1,.61,2.055c-1.74.517-3.486,1.092-5.19,1.709A1.073,1.073,0,0,1,532.466,347.288Zm62.486-.623a1.089,1.089,0,0,1-.344-.056c-1.718-.582-3.48-1.12-5.236-1.6a1.072,1.072,0,1,1,.565-2.068c1.8.492,3.6,1.043,5.357,1.638a1.072,1.072,0,0,1-.343,2.087Zm-48.5-3.247a1.072,1.072,0,0,1-.2-2.124c1.825-.357,3.684-.662,5.525-.909a1.072,1.072,0,1,1,.284,2.124c-1.8.242-3.616.541-5.4.888A1.078,1.078,0,0,1,546.451,343.418Zm34.422-.331a1.075,1.075,0,0,1-.184-.016c-1.789-.31-3.613-.572-5.42-.779a1.072,1.072,0,1,1,.243-2.129c1.849.211,3.714.479,5.542.8a1.072,1.072,0,0,1-.182,2.128Zm-20-1.339a1.072,1.072,0,0,1-.04-2.143c1.85-.071,3.727-.089,5.6-.05a1.072,1.072,0,0,1-.044,2.143c-1.831-.037-3.668-.02-5.476.049Z" transform="translate(-469.006 -339.535)" fill="#fff"/>
          <path id="Path_20594" data-name="Path 20594" d="M676.845,364.642a1.07,1.07,0,0,1-.612-.192q-1.158-.806-2.342-1.577a1.072,1.072,0,1,1,1.17-1.8q1.212.789,2.4,1.614a1.072,1.072,0,0,1-.613,1.951Z" transform="translate(-527.35 -345.634)" fill="#fff"/>
        </g>
        <g id="Group_6740" data-name="Group 6740" transform="translate(37.08 75.664)" opacity="0.64">
          <path id="Path_20595" data-name="Path 20595" d="M732.53,450.376a1.072,1.072,0,0,1-1.055-.89q-.239-1.394-.519-2.776a1.072,1.072,0,0,1,2.1-.428q.288,1.414.532,2.841a1.072,1.072,0,0,1-1.058,1.253Z" transform="translate(-580.851 -445.424)" fill="#fff"/>
          <path id="Path_20596" data-name="Path 20596" d="M583.62,565.82c-1.2,0-2.424-.023-3.629-.068a1.072,1.072,0,1,1,.081-2.142c1.917.071,3.853.084,5.757.041a1.072,1.072,0,1,1,.05,2.143Q584.752,565.821,583.62,565.82Zm11.662-.72a1.072,1.072,0,0,1-.13-2.135c1.9-.236,3.809-.534,5.685-.886a1.072,1.072,0,1,1,.394,2.107c-1.919.36-3.875.665-5.816.907A1.051,1.051,0,0,1,595.282,565.1Zm-24.672-.167a1.017,1.017,0,0,1-.146-.01c-1.941-.266-3.894-.594-5.808-.978a1.072,1.072,0,1,1,.422-2.1c1.869.374,3.779.7,5.676.955a1.072,1.072,0,0,1-.144,2.134Zm39.617-2.94a1.072,1.072,0,0,1-.3-2.1c1.831-.539,3.667-1.143,5.459-1.794a1.072,1.072,0,1,1,.732,2.014c-1.833.666-3.712,1.283-5.585,1.836A1.088,1.088,0,0,1,610.227,561.993ZM555.7,561.65a1.072,1.072,0,0,1-.315-.048c-1.869-.574-3.744-1.214-5.572-1.9a1.072,1.072,0,0,1,.755-2.006c1.787.673,3.621,1.3,5.447,1.859a1.072,1.072,0,0,1-.314,2.1Zm68.768-5.14a1.072,1.072,0,0,1-.466-2.038c1.72-.828,3.436-1.721,5.1-2.654a1.072,1.072,0,0,1,1.047,1.871c-1.7.954-3.459,1.867-5.218,2.715A1.07,1.07,0,0,1,624.464,556.51Zm-82.952-.515a1.073,1.073,0,0,1-.476-.112c-1.749-.868-3.5-1.8-5.19-2.782a1.071,1.071,0,1,1,1.07-1.856c1.656.955,3.364,1.869,5.073,2.717a1.072,1.072,0,0,1-.477,2.033Zm96.123-7.195a1.072,1.072,0,0,1-.615-1.95c1.566-1.094,3.118-2.251,4.613-3.44a1.072,1.072,0,0,1,1.334,1.678c-1.531,1.216-3.118,2.4-4.719,3.518A1.065,1.065,0,0,1,637.634,548.8Zm11.768-9.723a1.072,1.072,0,0,1-.747-1.841c1.371-1.331,2.718-2.722,4-4.135a1.072,1.072,0,0,1,1.586,1.443c-1.317,1.446-2.7,2.869-4.1,4.23A1.065,1.065,0,0,1,649.4,539.077Zm10.061-11.484a1.072,1.072,0,0,1-.86-1.711c1.141-1.537,2.248-3.128,3.29-4.727a1.072,1.072,0,1,1,1.8,1.17c-1.066,1.636-2.2,3.263-3.366,4.835A1.071,1.071,0,0,1,659.464,527.593Zm8.085-12.956a1.073,1.073,0,0,1-.952-1.564c.878-1.7,1.714-3.448,2.484-5.2a1.072,1.072,0,1,1,1.962.864c-.789,1.791-1.643,3.581-2.541,5.319A1.073,1.073,0,0,1,667.549,514.637Zm5.882-14.1a1.074,1.074,0,0,1-1.02-1.4c.587-1.812,1.128-3.671,1.6-5.525a1.072,1.072,0,1,1,2.076.534c-.488,1.9-1.04,3.8-1.642,5.653A1.072,1.072,0,0,1,673.43,500.539Zm3.517-14.854a1.058,1.058,0,0,1-.163-.012,1.072,1.072,0,0,1-.9-1.221c.287-1.886.522-3.809.7-5.713a1.072,1.072,0,0,1,2.135.194c-.178,1.948-.417,3.913-.712,5.842A1.071,1.071,0,0,1,676.947,485.685Zm1.1-15.227a1.072,1.072,0,0,1-1.072-1.063c-.015-1.914-.09-3.85-.221-5.752a1.072,1.072,0,1,1,2.138-.149c.136,1.946.212,3.926.227,5.884a1.071,1.071,0,0,1-1.063,1.08Z" transform="translate(-525.012 -450.297)" fill="#fff"/>
          <path id="Path_20597" data-name="Path 20597" d="M524.262,580.726a1.067,1.067,0,0,1-.625-.2q-1.173-.845-2.319-1.723a1.072,1.072,0,0,1,1.3-1.7q1.12.857,2.267,1.683a1.072,1.072,0,0,1-.627,1.942Z" transform="translate(-520.898 -482.946)" fill="#fff"/>
        </g>
        <g id="Group_6741" data-name="Group 6741" transform="translate(22.47 21.662)">
          <path id="Path_20598" data-name="Path 20598" d="M522.535,495.427a1.135,1.135,0,0,0,1.27.347l12.959-4.765a60.139,60.139,0,0,0,17.157,9.239l3.161,13.432a1.135,1.135,0,0,0,.99.869l16.477,1.669a1.135,1.135,0,0,0,1.144-.653l5.79-12.525a60.154,60.154,0,0,0,18.661-5.611l11.74,7.267a1.134,1.134,0,0,0,1.314-.086l12.831-10.47a1.134,1.134,0,0,0,.347-1.27l-4.765-12.959a60.138,60.138,0,0,0,9.239-17.157l13.432-3.161a1.134,1.134,0,0,0,.869-.99l1.669-16.477a1.135,1.135,0,0,0-.653-1.144l-12.525-5.79a60.135,60.135,0,0,0-5.611-18.661l7.267-11.74a1.134,1.134,0,0,0-.085-1.314l-10.471-12.831a1.134,1.134,0,0,0-1.271-.347l-12.958,4.765a60.139,60.139,0,0,0-17.157-9.239l-3.16-13.432a1.135,1.135,0,0,0-.99-.869l-16.478-1.669a1.135,1.135,0,0,0-1.144.653l-5.79,12.525a60.116,60.116,0,0,0-18.661,5.611l-11.74-7.267a1.134,1.134,0,0,0-1.315.086l-12.831,10.47a1.136,1.136,0,0,0-.347,1.27l4.765,12.959a60.138,60.138,0,0,0-9.239,17.157l-13.432,3.161a1.133,1.133,0,0,0-.868.99l-1.669,16.477a1.133,1.133,0,0,0,.652,1.144l12.525,5.79a60.16,60.16,0,0,0,5.611,18.661l-7.267,11.74a1.136,1.136,0,0,0,.086,1.315Z" transform="translate(-500.452 -369.85)" fill="url(#linear-gradient-20)"/>
          <path id="Path_20599" data-name="Path 20599" d="M596.536,481.75a15.8,15.8,0,1,1,2.334-.171h0A15.986,15.986,0,0,1,596.536,481.75Zm.042-29.416a13.724,13.724,0,0,0-2,.147,13.634,13.634,0,0,0,3.975,26.977h0a13.635,13.635,0,0,0-1.979-27.124Z" transform="translate(-523.383 -392.782)" fill="#fff"/>
          <path id="Path_20600" data-name="Path 20600" d="M586.867,496.574a41.216,41.216,0,0,1-4.167-.211h0a41.334,41.334,0,0,1-8.549-1.792,1.072,1.072,0,0,1-.742-1.019,1.029,1.029,0,0,1,.052-.332,1.074,1.074,0,0,1,1.349-.69,39.172,39.172,0,0,0,8.106,1.7h0a38.918,38.918,0,0,0,42.536-34.087c.027-.228.053-.458.076-.687a39.768,39.768,0,0,0,.2-4,38.893,38.893,0,0,0-77.588-3.841,39.246,39.246,0,0,0-.2,3.946,38.782,38.782,0,0,0,3.669,16.477,1.047,1.047,0,0,1,.1.456,1.071,1.071,0,0,1-2.042.455,41.038,41.038,0,1,1,78.2-17.5,41.89,41.89,0,0,1-.214,4.218A41.093,41.093,0,0,1,586.867,496.574Z" transform="translate(-513.396 -382.595)" fill="#fff"/>
        </g>
      </g>
      <g id="Group_6746" data-name="Group 6746" transform="translate(0 136.467)">
        <g id="Group_6743" data-name="Group 6743" opacity="0.64">
          <path id="Path_20601" data-name="Path 20601" d="M384.77,569.049a.715.715,0,0,1-.685-.514q-.256-.869-.474-1.754a.715.715,0,0,1,1.388-.343q.211.854.457,1.694a.714.714,0,0,1-.484.887A.7.7,0,0,1,384.77,569.049Z" transform="translate(-382.417 -515.147)" fill="#fff"/>
          <path id="Path_20602" data-name="Path 20602" d="M383.13,543.52a.714.714,0,0,1-.706-.605c-.185-1.2-.319-2.428-.4-3.644a.715.715,0,1,1,1.426-.092c.076,1.174.205,2.358.384,3.518a.716.716,0,0,1-.707.824Zm-.467-7.182h-.016a.714.714,0,0,1-.7-.73c.016-.65.045-1.3.091-1.957q.059-.854.152-1.7a.715.715,0,1,1,1.421.157c-.061.544-.109,1.091-.147,1.641q-.066.951-.088,1.891A.715.715,0,0,1,382.663,536.338Zm.787-7.153a.714.714,0,0,1-.7-.855c.238-1.195.532-2.392.873-3.558a.715.715,0,0,1,1.372.4c-.329,1.126-.614,2.282-.844,3.437A.714.714,0,0,1,383.451,529.184Zm2.023-6.9a.716.716,0,0,1-.665-.976c.443-1.13.943-2.258,1.487-3.351a.715.715,0,0,1,1.28.637c-.525,1.055-1.009,2.144-1.436,3.235A.716.716,0,0,1,385.474,522.28Zm3.208-6.444a.714.714,0,0,1-.608-1.088c.637-1.038,1.328-2.059,2.054-3.035a.714.714,0,1,1,1.147.852c-.7.943-1.367,1.929-1.982,2.932A.716.716,0,0,1,388.682,515.837Zm4.29-5.779a.714.714,0,0,1-.534-1.188c.81-.912,1.668-1.8,2.552-2.631a.714.714,0,1,1,.981,1.039c-.852.805-1.681,1.66-2.464,2.541A.715.715,0,0,1,392.972,510.058Zm5.233-4.942a.715.715,0,0,1-.444-1.275c.953-.755,1.953-1.476,2.969-2.146a.714.714,0,1,1,.786,1.193c-.983.647-1.948,1.345-2.869,2.074A.711.711,0,0,1,398.205,505.116Zm6.01-3.956a.715.715,0,0,1-.339-1.344c1.073-.578,2.183-1.115,3.3-1.594a.714.714,0,0,1,.564,1.313c-1.078.464-2.149.982-3.185,1.54A.714.714,0,0,1,404.215,501.16Zm38.1-.372a.706.706,0,0,1-.325-.079c-1.049-.537-2.132-1.035-3.218-1.476a.714.714,0,1,1,.539-1.323c1.125.457,2.246.971,3.331,1.528a.714.714,0,0,1-.327,1.35Zm-31.494-2.47a.715.715,0,0,1-.223-1.393c1.155-.381,2.342-.714,3.528-.99a.715.715,0,0,1,.324,1.393c-1.144.267-2.29.587-3.406.955A.718.718,0,0,1,410.826,498.318Zm24.824-.239a.707.707,0,0,1-.209-.031c-1.123-.344-2.276-.642-3.426-.886a.714.714,0,1,1,.3-1.4c1.193.252,2.387.561,3.549.918a.715.715,0,0,1-.21,1.4Zm-17.82-1.4a.715.715,0,0,1-.1-1.422c1.207-.171,2.434-.289,3.648-.353a.724.724,0,0,1,.751.677.715.715,0,0,1-.677.75c-1.171.061-2.356.177-3.52.342A.826.826,0,0,1,417.83,496.682Zm10.779-.1a.724.724,0,0,1-.087-.006c-.7-.086-1.417-.154-2.129-.2q-.7-.049-1.4-.074a.714.714,0,1,1,.049-1.428q.722.025,1.449.075c.737.051,1.479.122,2.2.211a.715.715,0,0,1-.086,1.424Z" transform="translate(-381.949 -494.875)" fill="#fff"/>
          <path id="Path_20603" data-name="Path 20603" d="M472.071,506.1a.713.713,0,0,1-.407-.127q-.72-.5-1.462-.97a.715.715,0,1,1,.763-1.208q.77.487,1.513,1a.714.714,0,0,1-.408,1.3Z" transform="translate(-407.045 -497.39)" fill="#fff"/>
        </g>
        <g id="Group_6744" data-name="Group 6744" transform="translate(16.06 32.765)" opacity="0.64">
          <path id="Path_20604" data-name="Path 20604" d="M496.476,543.915a.716.716,0,0,1-.705-.6q-.137-.87-.312-1.728a.715.715,0,0,1,1.4-.284q.179.888.322,1.788a.713.713,0,0,1-.594.817A.662.662,0,0,1,496.476,543.915Z" transform="translate(-430.405 -540.728)" fill="#fff"/>
          <path id="Path_20605" data-name="Path 20605" d="M431.869,593.4H431.7a.715.715,0,0,1,0-1.429h.161c1.1,0,2.22-.046,3.321-.138a.715.715,0,1,1,.119,1.424C434.169,593.353,433.012,593.4,431.869,593.4Zm-3.7-.164-.064,0c-1.2-.107-2.4-.266-3.574-.473a.715.715,0,0,1,.248-1.408c1.134.2,2.3.354,3.453.457a.715.715,0,0,1-.063,1.426Zm10.6-.422a.714.714,0,0,1-.12-1.418c1.142-.2,2.287-.444,3.4-.737a.715.715,0,0,1,.363,1.383c-1.155.3-2.341.56-3.523.763A.7.7,0,0,1,438.765,592.815Zm-17.572-.809a.717.717,0,0,1-.185-.025c-1.16-.31-2.317-.674-3.441-1.083a.715.715,0,0,1,.489-1.343c1.084.394,2.2.746,3.321,1.045a.715.715,0,0,1-.183,1.406Zm24.418-.988a.715.715,0,0,1-.241-1.388c1.088-.39,2.172-.832,3.222-1.315a.715.715,0,0,1,.6,1.3c-1.088.5-2.211.958-3.337,1.362A.714.714,0,0,1,445.611,591.018Zm-31.077-1.431a.72.72,0,0,1-.3-.066c-1.085-.505-2.162-1.065-3.2-1.663a.715.715,0,0,1,.713-1.239c1,.578,2.042,1.118,3.09,1.606a.714.714,0,0,1-.3,1.362Zm37.511-1.527a.714.714,0,0,1-.354-1.336c1-.572,2-1.194,2.949-1.851a.714.714,0,1,1,.811,1.176c-.986.68-2.013,1.325-3.053,1.917A.71.71,0,0,1,452.045,588.06Zm5.83-4.019a.715.715,0,0,1-.456-1.266c.894-.737,1.764-1.521,2.589-2.329a.714.714,0,0,1,1,1.02c-.853.837-1.755,1.648-2.68,2.412A.71.71,0,0,1,457.875,584.042Zm5.054-4.96a.714.714,0,0,1-.542-1.18c.754-.878,1.477-1.8,2.151-2.738A.715.715,0,1,1,465.7,576c-.7.972-1.448,1.926-2.228,2.835A.71.71,0,0,1,462.929,579.082Zm4.129-5.753a.715.715,0,0,1-.614-1.079c.592-1,1.145-2.031,1.646-3.069a.714.714,0,1,1,1.287.62c-.518,1.075-1.091,2.144-1.7,3.178A.714.714,0,0,1,467.058,573.329Zm3.073-6.381a.7.7,0,0,1-.253-.047.715.715,0,0,1-.416-.921c.409-1.078.775-2.19,1.089-3.306a.715.715,0,0,1,1.376.387c-.326,1.156-.706,2.309-1.128,3.425A.715.715,0,0,1,470.131,566.948Zm1.919-6.815a.657.657,0,0,1-.134-.013.714.714,0,0,1-.569-.835c.215-1.133.384-2.292.5-3.446a.715.715,0,0,1,1.422.146c-.122,1.193-.3,2.393-.52,3.566A.715.715,0,0,1,472.05,560.133Zm.72-7.044h-.011a.715.715,0,0,1-.7-.725q.005-.341.006-.681c0-.934-.032-1.877-.1-2.8a.715.715,0,0,1,1.426-.1c.066.958.1,1.934.1,2.9q0,.351-.006.7A.715.715,0,0,1,472.771,553.089Z" transform="translate(-406.208 -542.837)" fill="#fff"/>
          <path id="Path_20606" data-name="Path 20606" d="M406.578,600.18a.713.713,0,0,1-.409-.129q-.745-.521-1.466-1.073a.715.715,0,0,1,.87-1.135q.7.533,1.416,1.038a.714.714,0,0,1-.41,1.3Z" transform="translate(-404.424 -556.989)" fill="#fff"/>
        </g>
        <g id="Group_6745" data-name="Group 6745" transform="translate(9.978 9.613)">
          <path id="Path_20607" data-name="Path 20607" d="M405.483,562.747a.491.491,0,0,0,.55.151l5.616-2.065a26.081,26.081,0,0,0,7.435,4l1.37,5.821a.492.492,0,0,0,.429.377l7.141.723a.49.49,0,0,0,.5-.282l2.51-5.428a26.066,26.066,0,0,0,8.087-2.432l5.088,3.15a.491.491,0,0,0,.57-.037l5.561-4.537a.493.493,0,0,0,.151-.551l-2.065-5.616a26.062,26.062,0,0,0,4-7.435l5.821-1.37a.491.491,0,0,0,.377-.429l.723-7.141a.491.491,0,0,0-.283-.5l-5.428-2.509a26.051,26.051,0,0,0-2.432-8.087l3.15-5.088a.493.493,0,0,0-.037-.569l-4.538-5.56a.491.491,0,0,0-.55-.151l-5.616,2.065a26.061,26.061,0,0,0-7.435-4l-1.37-5.821a.49.49,0,0,0-.429-.377l-7.141-.723a.491.491,0,0,0-.5.282l-2.51,5.428a26.07,26.07,0,0,0-8.087,2.432l-5.088-3.149a.491.491,0,0,0-.57.037l-5.561,4.537a.492.492,0,0,0-.15.551l2.064,5.616a26.061,26.061,0,0,0-4,7.435l-5.821,1.37a.491.491,0,0,0-.376.429l-.724,7.141a.493.493,0,0,0,.283.5l5.428,2.509a26.065,26.065,0,0,0,2.432,8.087l-3.149,5.088a.491.491,0,0,0,.036.57Z" transform="translate(-395.913 -508.327)" fill="url(#linear-gradient-21)"/>
          <path id="Path_20608" data-name="Path 20608" d="M437.451,556.97a7.1,7.1,0,1,1,1.048-.077A7.107,7.107,0,0,1,437.451,556.97Zm.019-12.748a5.659,5.659,0,1,0,5.594,4.834A5.622,5.622,0,0,0,437.471,544.222Z" transform="translate(-405.75 -518.165)" fill="#fff" opacity="0.56"/>
          <path id="Path_20609" data-name="Path 20609" d="M433.263,563.394a18.227,18.227,0,0,1-5.425-.828l-.164-.052a.715.715,0,0,1-.494-.679.725.725,0,0,1,.035-.222.715.715,0,0,1,.9-.459,16.605,16.605,0,1,0,6.808-32.312,16.608,16.608,0,0,0-16.711,23.565.714.714,0,0,1-1.293.607,17.964,17.964,0,0,1-1.7-7.641,18.242,18.242,0,0,1,.092-1.83,18.033,18.033,0,0,1,35.974,1.8,18.256,18.256,0,0,1-.092,1.834A18.061,18.061,0,0,1,433.263,563.394Z" transform="translate(-401.423 -513.75)" fill="#fff" opacity="0.56"/>
        </g>
      </g>
      <g id="Group_6750" data-name="Group 6750" transform="translate(171.857)">
        <g id="Group_6747" data-name="Group 6747" opacity="0.64">
          <path id="Path_20610" data-name="Path 20610" d="M624.671,358.089a.715.715,0,0,1-.685-.513c-.174-.587-.329-1.183-.462-1.771a.714.714,0,1,1,1.393-.317c.127.559.275,1.125.439,1.684a.715.715,0,0,1-.484.888A.7.7,0,0,1,624.671,358.089Z" transform="translate(-622.756 -318.462)" fill="#fff"/>
          <path id="Path_20611" data-name="Path 20611" d="M623.323,338.165a.715.715,0,0,1-.71-.642,30.5,30.5,0,0,1-.156-3.09q0-.335.007-.672a.716.716,0,0,1,.715-.7h.016a.715.715,0,0,1,.7.73c-.005.214-.007.427-.007.64a29.089,29.089,0,0,0,.149,2.945.715.715,0,0,1-.639.783A.634.634,0,0,1,623.323,338.165Zm.159-7.336a.713.713,0,0,1-.708-.817,30.788,30.788,0,0,1,.765-3.684.714.714,0,1,1,1.378.376,29.371,29.371,0,0,0-.729,3.513A.714.714,0,0,1,623.482,330.829Zm1.933-7.08a.716.716,0,0,1-.661-.988,30.337,30.337,0,0,1,1.648-3.386.714.714,0,0,1,1.243.7,29.1,29.1,0,0,0-1.57,3.228A.715.715,0,0,1,625.415,323.749Zm3.612-6.39a.714.714,0,0,1-.572-1.14,30.614,30.614,0,0,1,2.424-2.88.714.714,0,1,1,1.034.986,29.26,29.26,0,0,0-2.312,2.745A.712.712,0,0,1,629.027,317.358Zm5.064-5.313a.715.715,0,0,1-.453-1.268,30.791,30.791,0,0,1,3.049-2.2.714.714,0,1,1,.765,1.207,29.494,29.494,0,0,0-2.908,2.1A.713.713,0,0,1,634.091,312.046Zm6.2-3.923a.715.715,0,0,1-.306-1.361,30.657,30.657,0,0,1,3.493-1.393.715.715,0,0,1,.447,1.358,29.051,29.051,0,0,0-3.33,1.327A.713.713,0,0,1,640.29,308.123Zm24.954-.226a.719.719,0,0,1-.292-.063,29.12,29.12,0,0,0-3.357-1.265.715.715,0,1,1,.419-1.366,30.574,30.574,0,0,1,3.524,1.328.715.715,0,0,1-.294,1.367Zm-17.987-2.064a.714.714,0,0,1-.136-1.416,30.349,30.349,0,0,1,3.731-.492.715.715,0,1,1,.1,1.426,29.041,29.041,0,0,0-3.556.469A.7.7,0,0,1,647.257,305.833Zm10.973-.094a.67.67,0,0,1-.124-.011,29.509,29.509,0,0,0-3.088-.377c-.159-.011-.319-.021-.478-.029a.716.716,0,0,1-.676-.752.723.723,0,0,1,.753-.675c.166.009.334.019.5.031a30.793,30.793,0,0,1,3.238.4.715.715,0,0,1-.124,1.418Z" transform="translate(-622.456 -303.894)" fill="#fff"/>
          <path id="Path_20612" data-name="Path 20612" d="M688.142,312.323a.711.711,0,0,1-.407-.128c-.471-.328-.962-.648-1.459-.951a.715.715,0,0,1,.745-1.22c.522.319,1.036.655,1.531,1a.715.715,0,0,1-.409,1.3Z" transform="translate(-640.575 -305.614)" fill="#fff"/>
        </g>
        <g id="Group_6748" data-name="Group 6748" transform="translate(11.706 23.841)" opacity="0.64">
          <path id="Path_20613" data-name="Path 20613" d="M706.155,340.449a.715.715,0,0,1-.707-.615c-.081-.58-.182-1.158-.3-1.719a.715.715,0,0,1,1.4-.284c.119.589.224,1.195.309,1.8a.716.716,0,0,1-.608.807A.689.689,0,0,1,706.155,340.449Z" transform="translate(-657.763 -337.259)" fill="#fff"/>
          <path id="Path_20614" data-name="Path 20614" d="M659.943,376.62a.715.715,0,0,1-.009-1.429,29.092,29.092,0,0,0,3.518-.259.715.715,0,1,1,.191,1.416,30.766,30.766,0,0,1-3.691.272Zm-3.613-.169a.693.693,0,0,1-.076,0,30.779,30.779,0,0,1-3.651-.614.715.715,0,1,1,.321-1.393,29.461,29.461,0,0,0,3.482.586.714.714,0,0,1-.075,1.425Zm10.763-.8a.715.715,0,0,1-.182-1.406,29.156,29.156,0,0,0,3.353-1.1.715.715,0,1,1,.527,1.328,30.45,30.45,0,0,1-3.518,1.157A.726.726,0,0,1,667.093,375.654Zm-17.8-.829a.71.71,0,0,1-.244-.044,30.568,30.568,0,0,1-3.4-1.477.715.715,0,1,1,.647-1.274,29.273,29.273,0,0,0,3.238,1.408.715.715,0,0,1-.244,1.386Zm24.506-1.839a.714.714,0,0,1-.343-1.341,29.343,29.343,0,0,0,2.988-1.876.715.715,0,1,1,.832,1.163,30.62,30.62,0,0,1-3.135,1.968A.715.715,0,0,1,673.8,372.986Zm5.871-4.2a.715.715,0,0,1-.483-1.241,29.269,29.269,0,0,0,2.455-2.537.715.715,0,0,1,1.085.93,30.873,30.873,0,0,1-2.575,2.66A.715.715,0,0,1,679.671,368.788Zm4.7-5.482a.714.714,0,0,1-.594-1.111,28.86,28.86,0,0,0,1.776-3.051.715.715,0,0,1,1.277.642,30.516,30.516,0,0,1-1.864,3.2A.714.714,0,0,1,684.368,363.306Zm3.244-6.452a.715.715,0,0,1-.672-.955,29.164,29.164,0,0,0,.984-3.389.715.715,0,0,1,1.394.315,30.679,30.679,0,0,1-1.033,3.555A.715.715,0,0,1,687.613,356.854Zm1.589-7.041a.632.632,0,0,1-.074,0,.715.715,0,0,1-.638-.783q.048-.471.081-.945c.048-.675.071-1.361.071-2.039q0-.272-.006-.542a.714.714,0,0,1,.7-.728.722.722,0,0,1,.728.7c0,.189.006.379.006.57,0,.712-.026,1.431-.074,2.138q-.034.5-.085.992A.715.715,0,0,1,689.2,349.813Z" transform="translate(-640.672 -339.403)" fill="#fff"/>
          <path id="Path_20615" data-name="Path 20615" d="M641,381.228a.705.705,0,0,1-.4-.123c-.5-.336-1-.7-1.483-1.068a.715.715,0,0,1,.869-1.135c.464.355.939.7,1.414,1.018a.715.715,0,0,1-.4,1.307Z" transform="translate(-638.838 -349.104)" fill="#fff"/>
        </g>
        <g id="Group_6749" data-name="Group 6749" transform="translate(7.47 7.171)">
          <path id="Path_20616" data-name="Path 20616" d="M639.88,353.571a.359.359,0,0,0,.4.109l4.09-1.5a18.99,18.99,0,0,0,5.416,2.917l1,4.24a.358.358,0,0,0,.312.274l5.2.527a.358.358,0,0,0,.362-.206l1.827-3.954a19,19,0,0,0,5.891-1.771l3.706,2.294a.358.358,0,0,0,.414-.027l4.051-3.306a.358.358,0,0,0,.109-.4l-1.5-4.091a19,19,0,0,0,2.917-5.416l4.24-1a.359.359,0,0,0,.274-.313l.527-5.2a.357.357,0,0,0-.206-.361l-3.954-1.828a19,19,0,0,0-1.771-5.891l2.294-3.706a.359.359,0,0,0-.027-.415l-3.305-4.05a.359.359,0,0,0-.4-.11l-4.091,1.5a18.977,18.977,0,0,0-5.416-2.917l-1-4.24a.359.359,0,0,0-.313-.274l-5.2-.527a.358.358,0,0,0-.361.206l-1.828,3.954a19,19,0,0,0-5.891,1.771l-3.706-2.294a.358.358,0,0,0-.415.027l-4.05,3.3a.36.36,0,0,0-.11.4l1.5,4.09a18.974,18.974,0,0,0-2.917,5.416l-4.24,1a.358.358,0,0,0-.274.312l-.527,5.2a.359.359,0,0,0,.206.362l3.954,1.827a18.976,18.976,0,0,0,1.771,5.891l-2.294,3.706a.358.358,0,0,0,.027.415Z" transform="translate(-632.909 -313.93)" fill="url(#linear-gradient-22)"/>
          <path id="Path_20617" data-name="Path 20617" d="M663.09,349.479a5.361,5.361,0,1,1,.792-.058h0A5.483,5.483,0,0,1,663.09,349.479Zm.688-.765h0Zm-.669-8.521a3.974,3.974,0,0,0-.581.042,3.922,3.922,0,1,0,.581-.042Z" transform="translate(-639.998 -321.018)" fill="#fff" opacity="0.56"/>
          <path id="Path_20618" data-name="Path 20618" d="M660.039,354.158a13.486,13.486,0,0,1-3.924-.585h0l-.126-.039-.079-.025a.715.715,0,0,1-.494-.68.713.713,0,0,1,.935-.68,11.947,11.947,0,0,0,2.481.519h0l.124.012a11.9,11.9,0,0,0,12.875-10.3c0-.009,0-.018,0-.027q.021-.161.037-.322a11.9,11.9,0,1,0-22.618,3.85.715.715,0,0,1-1.294.607,13.3,13.3,0,0,1-1.258-5.648q0-.675.069-1.353a13.33,13.33,0,1,1,13.272,14.673Z" transform="translate(-636.845 -317.803)" fill="#fff" opacity="0.56"/>
        </g>
      </g>
    </g>
    <g id="Group_6761" data-name="Group 6761" transform="translate(193.509 243.333)">
      <g id="Group_6759" data-name="Group 6759" transform="translate(61.196)">
        <g id="Group_6757" data-name="Group 6757" transform="translate(0 21.129)">
          <g id="Group_6752" data-name="Group 6752" transform="translate(28.844 106.898)">
            <path id="Path_20619" data-name="Path 20619" d="M364.858,488.586c-2.479.214-6.78.562-10.172.712a9.791,9.791,0,0,1-3.888-.381c0,.076,0,.149.006.215a.7.7,0,0,0,.666.662,118.983,118.983,0,0,0,13.319.014.5.5,0,0,0,.407-.75A4.029,4.029,0,0,0,364.858,488.586Z" transform="translate(-350.797 -480.015)" fill="url(#linear-gradient-23)"/>
            <path id="Path_20620" data-name="Path 20620" d="M354.686,487.3c3.391-.149,7.693-.5,10.172-.712-2.437-2.99-10.172-5-10.172-5H352.5a9.159,9.159,0,0,0-1.7,5.336A9.793,9.793,0,0,0,354.686,487.3Z" transform="translate(-350.797 -478.016)" fill="url(#linear-gradient-24)"/>
            <path id="Path_20621" data-name="Path 20621" d="M352.667,476.591l.2,4.045a.924.924,0,0,0,.789.869,3.587,3.587,0,0,0,1.641-.136,1.094,1.094,0,0,0,.735-.84l.707-3.938Z" transform="translate(-351.331 -476.591)" fill="url(#linear-gradient-25)"/>
          </g>
          <g id="Group_6754" data-name="Group 6754" transform="translate(0 103.117)">
            <g id="Group_6753" data-name="Group 6753" transform="translate(0 3.754)">
              <path id="Path_20622" data-name="Path 20622" d="M312.237,489.018a1.962,1.962,0,0,1-1.765-1.3l0,.016a1.4,1.4,0,0,0,.941,1.593,6.156,6.156,0,0,0,2.607.408,2.592,2.592,0,0,0,1.954-.9l.006-.009A6.56,6.56,0,0,1,312.237,489.018Z" transform="translate(-310.431 -479.739)" fill="url(#linear-gradient-26)"/>
              <path id="Path_20623" data-name="Path 20623" d="M317.321,476.554h-1.8c-2.744-.056-4.467,5.732-5.031,7.974a1.962,1.962,0,0,0,1.765,1.3,6.56,6.56,0,0,0,3.739-.2,17.212,17.212,0,0,0,2.57-6.475A2.274,2.274,0,0,0,317.321,476.554Z" transform="translate(-310.447 -476.553)" fill="url(#linear-gradient-24)"/>
            </g>
            <path id="Path_20624" data-name="Path 20624" d="M317.44,471.3l-1,3.979A1.08,1.08,0,0,0,317,476.5a3.837,3.837,0,0,0,2.072.5.905.905,0,0,0,.736-.6l1.468-4.187Z" transform="translate(-312.137 -471.3)" fill="url(#linear-gradient-28)"/>
          </g>
          <path id="Path_20625" data-name="Path 20625" d="M316.183,450.31c1.245,1.1,5.293,1.25,5.293,1.25,14.583-35,20.549-39.972,20.549-39.972-2.106,13.211-.339,42.458-.339,42.458,2.407,1.062,5.509,0,5.509,0a225.447,225.447,0,0,1,7.447-55.359c-9.857-.222-15.1-3.594-16.809-4.948C329.615,406.984,316.183,450.31,316.183,450.31Z" transform="translate(-312.073 -346.043)" fill="url(#linear-gradient-29)"/>
          <path id="Path_20626" data-name="Path 20626" d="M348.616,337.313c-1.866,9.306-1.2,25.961-.757,33.558.123,2.135-1.368,5.1-2.572,7.115a.633.633,0,0,0,.256.89,43.927,43.927,0,0,0,16.771,4.65,1.129,1.129,0,0,0,1.136-.844c5.875-21.935,12.7-35.952,12.7-35.952C368.613,334.7,348.616,337.313,348.616,337.313Z" transform="translate(-320.354 -329.869)" fill="url(#linear-gradient-30)"/>
          <path id="Path_20627" data-name="Path 20627" d="M353.553,415.251a.466.466,0,0,1-.4-.71,14.649,14.649,0,0,1,5.781-5.02.467.467,0,0,1,.407.841,13.963,13.963,0,0,0-5.391,4.665A.466.466,0,0,1,353.553,415.251Z" transform="translate(-322.607 -350.536)" fill="url(#linear-gradient-31)"/>
          <g id="Group_6755" data-name="Group 6755" transform="translate(16.32 7.444)">
            <path id="Path_20628" data-name="Path 20628" d="M333.606,374.526a32.011,32.011,0,0,0,5.912,14.086l1.346-1.1a41.582,41.582,0,0,1-.671-13.462A16.107,16.107,0,0,0,333.606,374.526Z" transform="translate(-333.366 -347.819)" fill="url(#linear-gradient-32)"/>
            <path id="Path_20629" data-name="Path 20629" d="M347.3,348.891l-2.084-11.482s-13.922,10.642-11.7,26.707a16.107,16.107,0,0,1,6.587-.474C340.734,358.486,342.635,352.89,347.3,348.891Z" transform="translate(-333.27 -337.409)" fill="url(#linear-gradient-33)"/>
          </g>
          <g id="Group_6756" data-name="Group 6756" transform="translate(50.418 16.861)">
            <path id="Path_20630" data-name="Path 20630" d="M386.364,350.587l-5.374,11.574c.869,6.988,4.622,10.009,8.67,11.167a24.566,24.566,0,0,1,1.8-7.536C386.293,360.452,386.364,350.587,386.364,350.587Z" transform="translate(-380.99 -350.587)" fill="url(#linear-gradient-34)"/>
            <path id="Path_20631" data-name="Path 20631" d="M394.928,371.865a24.566,24.566,0,0,0-1.8,7.536c10.8,4.189,13.655-3.935,13.655-3.935l-2-.352C400.276,375.589,397.128,374.136,394.928,371.865Z" transform="translate(-384.453 -356.661)" fill="url(#linear-gradient-28)"/>
          </g>
          <path id="Path_20632" data-name="Path 20632" d="M377.538,329.563l-2.595,9.537a1.856,1.856,0,0,1-2.481,1.235,37.81,37.81,0,0,1-3.74-1.708,2.5,2.5,0,0,1-.882-3.593l5.394-8.043Z" transform="translate(-326.697 -326.991)" fill="url(#linear-gradient-36)"/>
        </g>
        <path id="Path_20633" data-name="Path 20633" d="M391.264,367.973l-66.48,24.2a5.09,5.09,0,0,0-2.893,6.89l.2.444a4.732,4.732,0,0,0,6.294,2.336l64.551-29.861Z" transform="translate(-313.572 -317.56)" fill="url(#linear-gradient-24)"/>
        <ellipse id="Ellipse_240" data-name="Ellipse 240" cx="32.817" cy="32.225" rx="32.817" ry="32.225" transform="translate(75.431 3.633)" opacity="0.5" fill="url(#linear-gradient-38)"/>
        <path id="Path_20634" data-name="Path 20634" d="M447.335,297.422c-20.168,0-36.517,16.055-36.517,35.859s16.349,35.858,36.517,35.858,36.517-16.054,36.517-35.858S467.5,297.422,447.335,297.422Zm0,66.449c-17.205,0-31.153-13.7-31.153-30.59s13.947-30.591,31.153-30.591,31.153,13.7,31.153,30.591S464.54,363.871,447.335,363.871Z" transform="translate(-339.086 -297.422)" fill="url(#linear-gradient-24)"/>
        <path id="Path_20635" data-name="Path 20635" d="M414.47,338.677a.357.357,0,0,1-.354-.312c-.108-.85-.185-1.718-.227-2.58a.357.357,0,0,1,.713-.036c.041.845.117,1.694.223,2.525a.357.357,0,0,1-.309.4A.339.339,0,0,1,414.47,338.677Zm.252-10.027a.376.376,0,0,1-.064-.006.358.358,0,0,1-.289-.415,33.226,33.226,0,0,1,1.976-6.764h0a34.24,34.24,0,0,1,31.865-21.092,34.71,34.71,0,0,1,18.451,5.273.357.357,0,0,1-.379.605,34,34,0,0,0-18.072-5.163,33.528,33.528,0,0,0-31.2,20.649h0a32.414,32.414,0,0,0-1.934,6.619A.357.357,0,0,1,414.722,328.65Z" transform="translate(-339.962 -298.264)" fill="#fff"/>
        <g id="Group_6758" data-name="Group 6758" transform="translate(44.46 11.332)">
          <path id="Path_20636" data-name="Path 20636" d="M386.226,319.839c.024.164-2.164,10.883-2.164,10.883l-6.094-1.379.564-10.468S385.831,317.1,386.226,319.839Z" transform="translate(-374.169 -314.716)" fill="url(#linear-gradient-40)"/>
          <path id="Path_20637" data-name="Path 20637" d="M378.421,319.773l-.728,5.487a.766.766,0,0,0,0,.21c.061.43.382,1.894,1.86,1.476a6.949,6.949,0,0,1,3.421-.447.772.772,0,0,1,.532.894,33.445,33.445,0,0,1-1.4,4.995.771.771,0,0,1-.937.456,24.891,24.891,0,0,1-5.372-2.2.774.774,0,0,1-.377-.7c.059-1.385.221-5.6.084-6.777-.128-1.108-1.488-1.771-2.079-2.009a.76.76,0,0,1-.423-.424,2,2,0,0,1,1.348-2.923.774.774,0,0,0,.49-1,2.008,2.008,0,0,1,1.126-2.775,2.832,2.832,0,0,1,3.38.815.774.774,0,0,0,.985.116.611.611,0,0,1,.7.024.762.762,0,0,0,1.079-.327,2.308,2.308,0,0,1,2.682-1.336c2.731.467,3.04,3.493,2.32,5.267s-3.653,1.1-5.123.2c-1.118-.68-2.569.033-3.2.414A.769.769,0,0,0,378.421,319.773Z" transform="translate(-372.688 -313.281)" fill="url(#linear-gradient-41)"/>
          <path id="Path_20638" data-name="Path 20638" d="M375.221,328.218s1.123-3.143-.031-3.914-2.862-.37-2.486,1.907C373.172,329.044,375.221,328.218,375.221,328.218Z" transform="translate(-372.651 -316.325)" fill="url(#linear-gradient-42)"/>
        </g>
        <path id="Path_20639" data-name="Path 20639" d="M342.493,392.489l6.285-.512,2.722,2.509s-.644.89-2.657.378a28.891,28.891,0,0,0-4.771-.637s-2.779,1.253-2.812-1.091Z" transform="translate(-319.231 -324.412)" fill="url(#linear-gradient-43)"/>
        <path id="Path_20640" data-name="Path 20640" d="M410.853,377.085c.543.424,2.405-.462,3.545-1.075a1.312,1.312,0,0,0,.634-1.549c-.274-.865-.732-1.981-1.294-2.122C412.8,372.106,408.613,375.335,410.853,377.085Z" transform="translate(-338.91 -318.803)" fill="url(#linear-gradient-28)"/>
        <path id="Path_20641" data-name="Path 20641" d="M326.583,409.932a.368.368,0,0,1-.117-.019c-2.657-.919-3.275-2.5-3.326-3.663a4.065,4.065,0,0,1,2.65-3.919l7.982-3.113a.357.357,0,0,1,.26.666L326.05,403a3.35,3.35,0,0,0-2.2,3.223c.059,1.371,1.016,2.386,2.844,3.018a.357.357,0,0,1-.116.7Z" transform="translate(-314.058 -326.472)" fill="#fff"/>
        <path id="Path_20642" data-name="Path 20642" d="M341.5,398.405a.357.357,0,0,1-.13-.69l1.034-.4a.357.357,0,1,1,.259.666l-1.034.4A.343.343,0,0,1,341.5,398.405Z" transform="translate(-319.198 -325.928)" fill="#fff"/>
      </g>
      <g id="Group_6760" data-name="Group 6760" transform="translate(0 137.998)">
        <path id="Path_20643" data-name="Path 20643" d="M379.029,633.616a1.167,1.167,0,0,1-1.168-1.168V492.887a1.168,1.168,0,1,1,2.335,0V632.448A1.167,1.167,0,0,1,379.029,633.616Z" transform="translate(-268.482 -490.88)" fill="url(#linear-gradient-45)"/>
        <path id="Path_20644" data-name="Path 20644" d="M334.748,633.616a1.168,1.168,0,0,1-1.168-1.168V492.887a1.168,1.168,0,1,1,2.335,0V632.448A1.167,1.167,0,0,1,334.748,633.616Z" transform="translate(-255.842 -490.88)" fill="url(#linear-gradient-46)"/>
        <path id="Path_20645" data-name="Path 20645" d="M225.957,634.5a1.169,1.169,0,0,1-1.075-1.625L284.59,492.43a1.167,1.167,0,0,1,2.149.914L227.031,633.79A1.167,1.167,0,0,1,225.957,634.5Z" transform="translate(-224.789 -490.88)" fill="url(#linear-gradient-47)"/>
        <path id="Path_20646" data-name="Path 20646" d="M277.57,634.5a1.169,1.169,0,0,1-1.074-1.625L336.2,492.43a1.168,1.168,0,0,1,2.149.914L278.644,633.79A1.167,1.167,0,0,1,277.57,634.5Z" transform="translate(-239.522 -490.88)" fill="url(#linear-gradient-47)"/>
        <path id="Path_20647" data-name="Path 20647" d="M359.526,493.836H304.833a1.646,1.646,0,0,1-1.646-1.646h0a1.646,1.646,0,0,1,1.646-1.646h54.694a1.646,1.646,0,0,1,1.646,1.646h0A1.646,1.646,0,0,1,359.526,493.836Z" transform="translate(-247.167 -490.545)" fill="url(#linear-gradient-49)"/>
        <path id="Path_20648" data-name="Path 20648" d="M333.728,524.108h-36.99a1.168,1.168,0,1,1,0-2.335h36.99a1.168,1.168,0,1,1,0,2.335Z" transform="translate(-244.993 -499.459)" fill="url(#linear-gradient-50)"/>
        <rect id="Rectangle_1252" data-name="Rectangle 1252" width="36.99" height="2.335" transform="translate(40.396 48.877)" fill="url(#linear-gradient-47)"/>
        <rect id="Rectangle_1253" data-name="Rectangle 1253" width="36.99" height="2.335" transform="translate(29.408 75.439)" fill="url(#linear-gradient-47)"/>
        <path id="Path_20649" data-name="Path 20649" d="M286.342,635.626h-36.99a1.168,1.168,0,1,1,0-2.335h36.99a1.168,1.168,0,1,1,0,2.335Z" transform="translate(-231.467 -531.291)" fill="url(#linear-gradient-50)"/>
        <path id="Path_20650" data-name="Path 20650" d="M270.752,672.8h-36.99a1.168,1.168,0,1,1,0-2.335h36.99a1.168,1.168,0,1,1,0,2.335Z" transform="translate(-227.017 -541.902)" fill="url(#linear-gradient-49)"/>
      </g>
    </g>
    <g id="Group_6762" data-name="Group 6762" transform="translate(557.237 431.305)">
      <path id="Path_20651" data-name="Path 20651" d="M851.147,569.225H738.185a4.371,4.371,0,0,1-4.371-4.371h0a4.371,4.371,0,0,1,4.371-4.371H851.147a4.371,4.371,0,0,1,4.371,4.371h0A4.371,4.371,0,0,1,851.147,569.225Z" transform="translate(-733.814 -560.483)" fill="#fff" opacity="0.2"/>
      <path id="Path_20652" data-name="Path 20652" d="M870.142,593.187H757.18a4.371,4.371,0,0,1-4.371-4.372h0a4.371,4.371,0,0,1,4.371-4.371H870.142a4.371,4.371,0,0,1,4.371,4.371h0A4.371,4.371,0,0,1,870.142,593.187Z" transform="translate(-739.236 -567.322)" fill="#fff" opacity="0.53"/>
      <path id="Path_20653" data-name="Path 20653" d="M838.019,641.11H757.18a4.371,4.371,0,0,1-4.371-4.371h0a4.371,4.371,0,0,1,4.371-4.371h80.839a4.371,4.371,0,0,1,4.372,4.371h0A4.371,4.371,0,0,1,838.019,641.11Z" transform="translate(-739.236 -581.002)" fill="#fff" opacity="0.53"/>
      <path id="Path_20654" data-name="Path 20654" d="M887.87,617.148H774.909a4.371,4.371,0,0,1-4.372-4.371h0a4.371,4.371,0,0,1,4.372-4.371H887.87a4.371,4.371,0,0,1,4.371,4.371h0A4.37,4.37,0,0,1,887.87,617.148Z" transform="translate(-744.296 -574.162)" fill="#fff" opacity="0.2"/>
    </g>
    <g id="Group_6767" data-name="Group 6767" transform="translate(589.668 384.792)">
      <path id="Path_20655" data-name="Path 20655" d="M832.154,678.047s.481,2.723.717,5.419a1.857,1.857,0,0,1-1.776,2.012c-3.59.15-11.269.44-14.025.317a.6.6,0,0,1-.532-.827h0a1.352,1.352,0,0,1,.692-.729l12.684-5.83Z" transform="translate(-789.845 -547.528)" fill="url(#linear-gradient-55)"/>
      <path id="Path_20656" data-name="Path 20656" d="M837.314,675.607l-.387,3.257s-2.222,1.035-3.74-.13l.92-3.63Z" transform="translate(-794.61 -546.688)" fill="url(#linear-gradient-56)"/>
      <path id="Path_20657" data-name="Path 20657" d="M837.13,590.1c.167.851.9,42.451-3.551,61.093a.632.632,0,0,0,.372.735,10.987,10.987,0,0,0,3.621.736,1.09,1.09,0,0,0,1.081-.782c1.271-4.325,7.361-26,8.156-46.7.888-23.132,0-.787,0-.787l-.52-14.3Z" transform="translate(-794.716 -522.424)" fill="url(#linear-gradient-57)"/>
      <path id="Path_20658" data-name="Path 20658" d="M856.8,680.035a19.6,19.6,0,0,1,1.508,5.028,1.133,1.133,0,0,1-1,1.357c-1.185.116-3.01.266-4.472.257a1.13,1.13,0,0,1-1.119-1.26,9.531,9.531,0,0,1,2.225-5.226Z" transform="translate(-799.896 -548.095)" fill="url(#linear-gradient-58)"/>
      <path id="Path_20659" data-name="Path 20659" d="M858.349,674.1l-.9,4.926a3.188,3.188,0,0,1-2.66.183l.432-5.3Z" transform="translate(-800.775 -546.345)" fill="url(#linear-gradient-59)"/>
      <path id="Path_20660" data-name="Path 20660" d="M856.008,590.969c3.636,21.948-.789,54.247-2.282,60.569a.984.984,0,0,1-.8.748,6.619,6.619,0,0,1-2.845-.113.9.9,0,0,1-.65-.832c-.2-5.111.16-36.487-3.228-48.887a2.812,2.812,0,0,0-1.087-1.553l-6.577-4.676-.5-7.558Z" transform="translate(-795.995 -522.015)" fill="url(#linear-gradient-60)"/>
      <g id="Group_6763" data-name="Group 6763" transform="translate(4.647 10.487)">
        <path id="Path_20661" data-name="Path 20661" d="M824.47,532.976c10.9-.18,22.924,2.862,22.924,2.862,3.248,18.956.568,40.821.568,40.821-8.438,2.212-17.955-1.353-17.955-1.353-1.4-7.924-7.946-30.222-7.946-30.222a35.916,35.916,0,0,1-13.324-4.228,23.373,23.373,0,0,0,4.619-9.662A36.564,36.564,0,0,0,824.47,532.976Z" transform="translate(-792.277 -516.097)" fill="url(#linear-gradient-61)"/>
        <path id="Path_20662" data-name="Path 20662" d="M785.7,510.892a2.085,2.085,0,0,1,2.425-.682c1.6,6.775,10.014,12.268,18.654,14.953a23.373,23.373,0,0,1-4.619,9.662C787.824,526.762,785.7,510.892,785.7,510.892Z" transform="translate(-785.702 -510.066)" fill="url(#linear-gradient-62)"/>
      </g>
      <g id="Group_6764" data-name="Group 6764">
        <path id="Path_20663" data-name="Path 20663" d="M784.105,507.032c-.111.356,1.185.9,1.949-.558.026-.7.452-3.689.034-4.257a55.7,55.7,0,0,0-6.529-6.826,1.025,1.025,0,0,0-.129,1.424l2.089,2.177a10.133,10.133,0,0,0-1.22,2.412,2.925,2.925,0,0,0,.292,2.155c.367.661.867,1.52,1.34,2.192A2.893,2.893,0,0,0,784.105,507.032Z" transform="translate(-779.199 -495.39)" fill="url(#linear-gradient-63)"/>
        <path id="Path_20664" data-name="Path 20664" d="M783.56,502.406l1.9,1.614.6,1.607-1.7,1.884a21.9,21.9,0,0,0-1-3.879C782.944,502.941,783.164,502.607,783.56,502.406Z" transform="translate(-780.324 -497.393)" fill="url(#linear-gradient-64)"/>
      </g>
      <path id="Path_20665" data-name="Path 20665" d="M856.987,548.246l4.18-10.553s10.18,6.917,11.855,15.687a24.083,24.083,0,0,0-8.85,2.372C863.419,551.61,856.987,548.246,856.987,548.246Z" transform="translate(-801.403 -507.465)" fill="url(#linear-gradient-65)"/>
      <path id="Path_20666" data-name="Path 20666" d="M843.933,564.443s11.429,6.46,15.286.944a4.336,4.336,0,0,0,.8-3.369,24.083,24.083,0,0,1,8.85-2.372,12.1,12.1,0,0,1-1.316,8.3c-6.755,12.358-25.128-.682-25.128-.682Z" transform="translate(-797.245 -513.731)" fill="url(#linear-gradient-66)"/>
      <g id="Group_6765" data-name="Group 6765" transform="translate(19.507 33.173)">
        <path id="Path_20667" data-name="Path 20667" d="M835.053,568.37l-6.238-21.784a.635.635,0,0,0-.537-.457c-1.13-.132-4.405-.5-8.186-.822a92.892,92.892,0,0,0-13.005-.432.638.638,0,0,0-.521.918c1.8,3.636,9.191,18.428,12.893,23.273a.64.64,0,0,0,.514.252l14.473-.134A.638.638,0,0,0,835.053,568.37Z" transform="translate(-806.499 -542.66)" fill="url(#linear-gradient-67)"/>
        <path id="Path_20668" data-name="Path 20668" d="M822.657,542.573l-4.522-.754a.324.324,0,0,0-.362.422l.447,1.357a.326.326,0,0,0,.266.22l4.352.581a.324.324,0,0,0,.359-.4l-.277-1.185A.325.325,0,0,0,822.657,542.573Z" transform="translate(-809.712 -541.815)" fill="url(#linear-gradient-68)"/>
        <path id="Path_20669" data-name="Path 20669" d="M825.2,546.943,824.829,545a.447.447,0,0,0-.4-.362l-9.135-.928a.449.449,0,0,0-.482.552l.581,2.418a.448.448,0,0,0,.414.343l8.926.449A.448.448,0,0,0,825.2,546.943Z" transform="translate(-808.87 -542.356)" fill="url(#linear-gradient-69)"/>
        <path id="Path_20670" data-name="Path 20670" d="M841.27,567.463s.87-3.573.519-4.841-1.03-2.9-3.293-2.535a33.118,33.118,0,0,0-4.934,1.316,1.3,1.3,0,0,0,1.856,1.118l-1.067.825s.152,1.322,1.606.616l-.992,1.095a1.157,1.157,0,0,0,1.693.389C837.725,564.75,838.238,567.893,841.27,567.463Z" transform="translate(-814.224 -547.016)" fill="url(#linear-gradient-70)"/>
      </g>
      <path id="Path_20671" data-name="Path 20671" d="M843.384,521.3l3.469,10.029a.362.362,0,0,1-.165.435,8.152,8.152,0,0,1-8.455-.569,1.7,1.7,0,0,1-.783-1.215l-1.123-8.68Z" transform="translate(-795.505 -502.787)" fill="url(#linear-gradient-71)"/>
      <g id="Group_6766" data-name="Group 6766" transform="translate(36.971 4.019)">
        <path id="Path_20672" data-name="Path 20672" d="M834.3,508.308s-3.808,7.169-3.32,10.064,5.208,2.688,9.329.336l2.88-7.74Z" transform="translate(-830.939 -503.097)" fill="url(#linear-gradient-72)"/>
        <path id="Path_20673" data-name="Path 20673" d="M840.693,512.825a.3.3,0,0,1-.129-.432,7.7,7.7,0,0,0,1.059-2.249s.685-.439-1.742-1.02-6.047-1.482-6.807-3.548c-.742-2.014,1.207-7.079,4.316-3.043a.3.3,0,0,0,.468,0,3.047,3.047,0,0,1,3.71-1.205,2.794,2.794,0,0,1,1.914,2.7.294.294,0,0,0,.348.3,3.407,3.407,0,0,1,3.978,1.855c.813,1.785.284,2.8-.2,3.289a.3.3,0,0,0,.126.489,1.772,1.772,0,0,1,1.25,2.022c-.1,1.874-2.2,1.709-2.795,1.623a.293.293,0,0,0-.262.093c-.512.566-2.815,2.969-5.309,3.258a.3.3,0,0,1-.313-.394l1.08-3.137a.3.3,0,0,0-.161-.368Z" transform="translate(-831.503 -501.015)" fill="url(#linear-gradient-73)"/>
        <path id="Path_20674" data-name="Path 20674" d="M842.857,517.8s2.711-1.86,2.91-.294-2.442,2.269-3.749,1.685Z" transform="translate(-834.101 -505.543)" fill="url(#linear-gradient-74)"/>
      </g>
    </g>
    <g id="Group_6770" data-name="Group 6770" transform="translate(438.004 108.677)">
      <g id="Group_6768" data-name="Group 6768" transform="translate(7.426 9.071)">
        <path id="Path_20675" data-name="Path 20675" d="M590.55,160.254a1.182,1.182,0,0,1-.9-.364.788.788,0,0,1-.181-.687l.192-.872a1.1,1.1,0,0,1,1.032-.805l2.585-.212.422-6.65c-4.666.134-8.843.242-11.582.311a3.594,3.594,0,0,1-3.659-3.485l-1.11-21.794a2.667,2.667,0,0,1,2.461-2.893c7.307-.537,27.874-.97,36.377-1.131a2.866,2.866,0,0,1,2.858,2.282h0c1.173,5.639,1.558,17.914,1.669,22.929a2.788,2.788,0,0,1-2.608,2.85c-2.655.174-7.041.366-13.4.584l1.315,5.939,2-.17a1.1,1.1,0,0,1,1.181.658l.489,1.4a.788.788,0,0,1-.092.716,1.206,1.206,0,0,1-.951.474l-18.016.918Zm3.531-10.318a.358.358,0,0,1,.357.38l-.467,7.349a.358.358,0,0,1-.327.334l-2.892.237a.424.424,0,0,0-.392.24l-.192.872a.078.078,0,0,0,.021.074.506.506,0,0,0,.405.116l18.016-.918a.521.521,0,0,0,.394-.16.079.079,0,0,0,.01-.082l-.489-1.4a.429.429,0,0,0-.447-.179l-2.307.2a.344.344,0,0,1-.379-.279l-1.476-6.665a.357.357,0,0,1,.337-.434c6.583-.225,11.1-.421,13.805-.6A2.074,2.074,0,0,0,620,146.9c-.11-5-.493-17.217-1.654-22.8h0a2.154,2.154,0,0,0-2.145-1.712c-8.5.161-29.05.594-36.34,1.13a1.966,1.966,0,0,0-1.8,2.143l1.11,21.794a2.861,2.861,0,0,0,2.928,2.807c2.815-.071,7.148-.182,11.971-.322Z" transform="translate(-577.344 -121.671)" fill="url(#linear-gradient-75)"/>
        <path id="Path_20676" data-name="Path 20676" d="M582.312,148.782a2.286,2.286,0,0,1-2.272-2.159l-1.055-20.706h0a1.838,1.838,0,0,1,1.785-1.929l35.967-.956a1.736,1.736,0,0,1,1.767,1.641l.975,20.524a2.222,2.222,0,0,1-2.142,2.327l-34.943,1.257Zm-2.615-22.9,1.055,20.706a1.573,1.573,0,0,0,1.616,1.48l34.943-1.257a1.51,1.51,0,0,0,1.453-1.58L617.79,124.7a1.007,1.007,0,0,0-1.034-.96l-35.967.956a1.123,1.123,0,0,0-1.092,1.179Z" transform="translate(-577.812 -122.058)" fill="url(#linear-gradient-76)"/>
        <path id="Path_20677" data-name="Path 20677" d="M606.636,160.405a.857.857,0,1,1,.044,0Zm0-.966h-.007a.126.126,0,0,0-.119.131.128.128,0,0,0,.041.087.1.1,0,0,0,.09.032.125.125,0,0,0,.088-.041.128.128,0,0,0,.031-.089h0a.127.127,0,0,0-.041-.086A.125.125,0,0,0,606.638,159.439Z" transform="translate(-585.466 -132.247)" fill="url(#linear-gradient-77)"/>
        <path id="Path_20678" data-name="Path 20678" d="M609.707,173.015a.357.357,0,0,1-.021-.714l.744-.044a.357.357,0,1,1,.042.713l-.744.044Z" transform="translate(-586.48 -136.11)" fill="url(#linear-gradient-78)"/>
        <path id="Path_20679" data-name="Path 20679" d="M596.052,174.291a.341.341,0,0,1-.084-.011.357.357,0,0,1-.262-.432l.088-.36a1,1,0,0,1,.976-.613l7.891-.464a.357.357,0,1,1,.042.713l-7.891.464a.594.594,0,0,0-.341.106l-.071.323A.357.357,0,0,1,596.052,174.291Z" transform="translate(-582.582 -136.154)" fill="url(#linear-gradient-79)"/>
      </g>
      <g id="Group_6769" data-name="Group 6769">
        <path id="Path_20680" data-name="Path 20680" d="M586.093,165.1c-2.718,0-5.186-.084-7.251-.256-4.794-.4-7.363-1.218-7.852-2.5-1.679-4.4-7.163-45.035-1.613-51.107a.359.359,0,0,1,.234-.115c5.187-.429,50.774-4.094,54.006-.75,1.779,1.841,2.367,13.763,2.325,24.306-.043,10.356-.716,22.572-2.1,24.922-1.353,2.3-13.077,3.824-18.055,4.37A188.1,188.1,0,0,1,586.093,165.1Zm-16.28-53.279c-4.835,5.829-.23,44.837,1.843,50.268.171.447,1.218,1.541,7.245,2.044,14.4,1.2,42.575-1.911,44.328-4.9,1.108-1.885,1.947-12.215,2-24.562.052-12.87-.8-22.437-2.124-23.806C620.842,108.527,590.051,110.152,569.813,111.821Z" transform="translate(-566.951 -108.976)" fill="url(#linear-gradient-80)"/>
      </g>
    </g>
    <g id="Group_6775" data-name="Group 6775" transform="translate(336.352 135.174)">
      <g id="Group_6774" data-name="Group 6774" transform="translate(0 0)">
        <g id="Group_6771" data-name="Group 6771" transform="translate(14.552 7.48)">
          <path id="Path_20681" data-name="Path 20681" d="M448.249,199.8a2.031,2.031,0,0,1-2.021-1.877c-.609-8.28-1.05-31.612-1.17-38.566a2.492,2.492,0,0,1,2.235-2.537c6.109-.656,18.526-.049,23.58.243a2.649,2.649,0,0,1,2.478,2.312h0c1.15,9.042,1.668,28.464,1.839,36.394a3.176,3.176,0,0,1-2.9,3.223c-7.007.59-19.13.762-24.017.807ZM454.8,157.24c-2.833,0-5.466.079-7.434.289a1.781,1.781,0,0,0-1.6,1.814c.121,6.949.561,30.264,1.169,38.526a1.314,1.314,0,0,0,1.308,1.215h.009c4.883-.046,16.986-.217,23.968-.8a2.459,2.459,0,0,0,2.249-2.5c-.17-7.919-.687-27.311-1.833-36.32h0a1.935,1.935,0,0,0-1.809-1.689C467.432,157.579,460.69,157.24,454.8,157.24Zm-.193,36.795c-2.109,0-3.945-.022-5.212-.043a2.258,2.258,0,0,1-2.224-2.1c-.519-6.732-.55-25.067-.547-30.526a2.2,2.2,0,0,1,1.993-2.191c5.04-.487,16.225-.036,20.8.182a2.472,2.472,0,0,1,2.347,2.277c.509,6.729.352,24.141.292,29.318a2.512,2.512,0,0,1-2.2,2.457A144.994,144.994,0,0,1,454.611,194.034Zm.452-34.359c-2.483,0-4.753.059-6.375.215a1.484,1.484,0,0,0-1.347,1.481c0,5.453.029,23.765.545,30.471a1.547,1.547,0,0,0,1.523,1.435c4.162.069,14.481.148,20.363-.573a1.8,1.8,0,0,0,1.571-1.757h0c.061-5.169.218-22.555-.29-29.255a1.756,1.756,0,0,0-1.666-1.616C466.307,159.929,460.225,159.676,455.063,159.676Z" transform="translate(-445.057 -156.525)" fill="url(#linear-gradient-81)"/>
          <path id="Path_20682" data-name="Path 20682" d="M464.441,213.67a2.142,2.142,0,1,1,2.143-2.232h0a2.146,2.146,0,0,1-2.05,2.23Zm0-3.57h-.061a1.428,1.428,0,0,0-.906,2.477,1.451,1.451,0,0,0,1.026.375,1.43,1.43,0,0,0,1.366-1.486h0A1.43,1.43,0,0,0,464.444,210.1Z" transform="translate(-449.98 -171.614)" fill="url(#linear-gradient-82)"/>
          <path id="Path_20683" data-name="Path 20683" d="M465.386,159.068h-.011c-1.3-.021-4.2-.051-5.226-.061a.749.749,0,0,1-.741-.717h0a.746.746,0,0,1,.688-.779,49.612,49.612,0,0,1,5.316.017.752.752,0,0,1,.692.575.772.772,0,0,1-.134.685A.746.746,0,0,1,465.386,159.068Zm-3.24-.909c-.7,0-1.4.017-1.994.064l-.029.036a.034.034,0,0,0,.034.033c1.03.011,3.932.041,5.229.061l.024-.088C464.87,158.224,463.509,158.159,462.145,158.159Z" transform="translate(-449.153 -156.787)" fill="url(#linear-gradient-83)"/>
        </g>
        <g id="Group_6773" data-name="Group 6773">
          <g id="Group_6772" data-name="Group 6772">
            <path id="Path_20684" data-name="Path 20684" d="M455.5,201.762a145.667,145.667,0,0,1-21.717-1.4c-4.747-.791-7.24-1.817-7.624-3.136-1.313-4.521-3.451-45.47,2.579-51.067l.1-.1h.14c5.21-.012,50.939.078,53.887,3.676,1.622,1.981,1.232,13.91.327,24.414-.891,10.318-2.562,22.437-4.131,24.666-1.538,2.186-13.346,2.74-18.351,2.877C458.987,201.739,457.241,201.762,455.5,201.762Zm-26.374-54.989c-5.3,5.409-3.9,44.666-2.279,50.249.134.459,1.088,1.636,7.054,2.63,14.256,2.377,42.587,1.582,44.578-1.248,1.258-1.789,2.942-12.015,4-24.316,1.106-12.823,1.039-22.428-.167-23.9C480.251,147.67,449.439,146.768,429.125,146.773Z" transform="translate(-424.692 -146.058)" fill="url(#linear-gradient-84)"/>
          </g>
        </g>
      </g>
      <path id="Path_20685" data-name="Path 20685" d="M450.8,179.064a.357.357,0,0,1-.357-.343l-.466-11.683a.357.357,0,0,1,.343-.371.362.362,0,0,1,.372.342l.466,11.683a.358.358,0,0,1-.343.372Z" transform="translate(-431.908 -151.941)" fill="url(#linear-gradient-85)"/>
    </g>
    <g id="Group_6780" data-name="Group 6780" transform="translate(526.668 107.928)">
      <g id="Group_6777" data-name="Group 6777" transform="translate(0)">
        <g id="Group_6776" data-name="Group 6776">
          <path id="Path_20686" data-name="Path 20686" d="M736.092,178.214c-3.556,0-12.545-4.229-16.562-6.21-8.862-4.372-17.965-9.769-23.194-13.751-3.825-2.913-5.551-4.983-5.273-6.328.948-4.611,18.17-41.824,26.116-43.96l.135-.036.124.066c4.6,2.427,45.013,23.845,45.94,28.4.51,2.509-5.4,12.878-11.107,21.744-5.6,8.709-12.738,18.647-15.165,19.886A2.276,2.276,0,0,1,736.092,178.214Zm-18.859-69.521c-7.212,2.311-24.3,37.682-25.47,43.375-.1.469.2,1.954,5.006,5.616,11.5,8.756,36.93,21.282,40.012,19.705,1.947-.994,8.209-9.252,14.89-19.636,6.963-10.824,11.386-19.35,11.007-21.215C762.029,133.349,735.2,118.166,717.233,108.693Z" transform="translate(-691.034 -107.928)" fill="url(#linear-gradient-86)"/>
        </g>
      </g>
      <g id="Group_6779" data-name="Group 6779" transform="translate(10.902 15.319)">
        <g id="Group_6778" data-name="Group 6778">
          <path id="Path_20687" data-name="Path 20687" d="M742.871,172.782a2.69,2.69,0,0,1-.955-.175h0c-8.741-3.3-26.58-12.164-33.844-15.82a3.244,3.244,0,0,1-1.521-4.166c2.835-6.635,8.5-17.693,10.806-22.139a2.073,2.073,0,0,1,2.67-.941c7.773,3.417,29.129,14.233,35.49,17.466a2.547,2.547,0,0,1,1.219,3.232c-2.342,5.849-8.856,16.8-11.547,21.238A2.712,2.712,0,0,1,742.871,172.782Zm-.7-.843a2,2,0,0,0,2.409-.832c2.683-4.422,9.174-15.334,11.5-21.133a1.837,1.837,0,0,0-.88-2.33c-6.357-3.231-27.7-14.039-35.454-17.449a1.355,1.355,0,0,0-1.746.616c-2.3,4.44-7.959,15.478-10.784,22.091a2.529,2.529,0,0,0,1.184,3.247c7.254,3.651,25.066,12.5,33.775,15.79Zm-.53-1.648a2.646,2.646,0,0,1-1.069-.227c-6.461-2.853-22.56-11.569-27.34-14.173h0a2.581,2.581,0,0,1-1.239-3.135c2.091-5.574,7-14.656,9.02-18.3a2.3,2.3,0,0,1,2.969-.935c6.5,2.862,23.519,11.855,28.58,14.543a2.253,2.253,0,0,1,1.088,2.823c-1.9,4.682-7.546,14.305-9.884,18.226A2.457,2.457,0,0,1,741.638,170.291Zm-28.066-15.027c4.773,2.6,20.85,11.305,27.286,14.146a1.8,1.8,0,0,0,2.292-.663c2.33-3.906,7.952-13.493,9.836-18.129a1.542,1.542,0,0,0-.761-1.924c-5.056-2.685-22.057-11.669-28.532-14.521a1.589,1.589,0,0,0-2.057.627c-2.008,3.633-6.9,12.678-8.977,18.208a1.867,1.867,0,0,0,.913,2.256Z" transform="translate(-706.291 -129.366)" fill="url(#linear-gradient-87)"/>
          <path id="Path_20688" data-name="Path 20688" d="M717.423,147.219a1.557,1.557,0,0,1-.672-.152h0a1.566,1.566,0,1,1,.672.152Zm-.363-.8a.849.849,0,1,0-.4-1.132.848.848,0,0,0,.4,1.132Z" transform="translate(-709.023 -133.57)" fill="url(#linear-gradient-88)"/>
        </g>
        <path id="Path_20689" data-name="Path 20689" d="M760.213,155.212a.353.353,0,0,1-.155-.035l-10.8-5.19a.358.358,0,0,1,.31-.645l10.8,5.191a.357.357,0,0,1-.155.679Z" transform="translate(-718.497 -135.059)" fill="url(#linear-gradient-89)"/>
      </g>
    </g>
    <g id="Group_6783" data-name="Group 6783" transform="translate(618.754 124.594)">
      <g id="Group_6781" data-name="Group 6781">
        <path id="Path_20690" data-name="Path 20690" d="M854.351,184.87l-7.7,7.037-1.456-8.239Z" transform="translate(-827.124 -146.213)" fill="url(#linear-gradient-90)"/>
        <path id="Path_20691" data-name="Path 20691" d="M819.905,131.251l.77,37.459a2.64,2.64,0,0,0,2.793,2.581l37.581-2.189a1.058,1.058,0,0,0,.629-1.857Z" transform="translate(-819.905 -131.251)" fill="url(#linear-gradient-91)"/>
        <path id="Path_20692" data-name="Path 20692" d="M847.129,169.906l-27.224-38.655,21.16,39.027-2.052,2.042Z" transform="translate(-819.905 -131.251)" fill="url(#linear-gradient-92)"/>
        <path id="Path_20693" data-name="Path 20693" d="M844.484,186.061l1.966,6.474,1.631-6.667Z" transform="translate(-826.921 -146.841)" fill="url(#linear-gradient-93)"/>
      </g>
      <g id="Group_6782" data-name="Group 6782" transform="translate(23.291 50.164)">
        <path id="Path_20694" data-name="Path 20694" d="M853.43,201.752a1.832,1.832,0,0,1,.414.5c.172.324.279.815.509,1.246a14.146,14.146,0,0,1,.742,1.657l.005.011c.134.276.2.533-.1.69a.5.5,0,0,1-.711-.248s-.4-.828-.832-1.636c-.106-.2-.192-.416-.292-.607-.11-.207-.148-.31-.211-.446a2.361,2.361,0,0,0-.151-.319c-.051-.086-.077-.136-.077-.136l-.128-.217a.482.482,0,0,1,.136-.717.471.471,0,0,1,.693.219Z" transform="translate(-852.499 -201.453)" fill="#ce41a4"/>
        <path id="Path_20695" data-name="Path 20695" d="M858.716,210.679l1.972,3.079a.565.565,0,0,1-.21.779.588.588,0,0,1-.806-.151l-1.976-3.076a.567.567,0,0,1,.21-.782.591.591,0,0,1,.81.151Z" transform="translate(-853.96 -204.016)" fill="#ce41a4"/>
        <path id="Path_20696" data-name="Path 20696" d="M864.109,219.524l2.358,2.76a.461.461,0,0,1-.08.71.558.558,0,0,1-.782-.126l-2.217-2.922c-.186-.242-.242-.456.024-.648s.437.107.7.225Z" transform="translate(-855.563 -206.529)" fill="#ce41a4"/>
        <path id="Path_20697" data-name="Path 20697" d="M870.285,227.861,873,230.266c.205.222.283.424.037.634a.533.533,0,0,1-.761-.1l-2.469-2.732c-.206-.223-.382-.3-.135-.509s.359.3.611.3Z" transform="translate(-857.367 -208.892)" fill="#ce41a4"/>
        <path id="Path_20698" data-name="Path 20698" d="M878.685,233l2.42,2.982c.226.2.053.815-.171,1.043s-.675.387-.9.188l-2.818-2.371c-.227-.2.1-1.053.324-1.282a2.57,2.57,0,0,1,1.146-.56Z" transform="translate(-859.532 -210.458)" fill="#ce41a4"/>
        <path id="Path_20699" data-name="Path 20699" d="M885.727,241.821l3.1,1.789c.247.171.313.345.118.592a.576.576,0,0,1-.79.055l-3.053-2.154c-.249-.171-.337-.2-.141-.452s.532-.544.76.17Z" transform="translate(-861.736 -212.848)" fill="#ce41a4"/>
        <path id="Path_20700" data-name="Path 20700" d="M895.255,246l3.017,1.962c.268.137.193.586.031.85a.737.737,0,0,1-.857.292l-3.381-1.681c-.269-.138-.054-.7.108-.961s.092-.462,1.082-.462Z" transform="translate(-864.327 -214.169)" fill="#ce41a4"/>
        <path id="Path_20701" data-name="Path 20701" d="M903.981,251l3.594,1.285a.514.514,0,0,1,.3.7.6.6,0,0,1-.734.329l-3.575-1.254a.531.531,0,0,1-.312-.709.748.748,0,0,1,.725-.347Z" transform="translate(-866.975 -215.596)" fill="#ce41a4"/>
        <path id="Path_20702" data-name="Path 20702" d="M913.857,254.591l3.718,1.083a.5.5,0,0,1,.359.646.569.569,0,0,1-.7.336l-3.627-1.124a.5.5,0,0,1-.4-.631c.111-.281.557-.5.647-.311Z" transform="translate(-869.82 -216.601)" fill="#ce41a4"/>
        <path id="Path_20703" data-name="Path 20703" d="M923.978,258l3.826.724c.291.07.509.267.417.549a.536.536,0,0,1-.666.339l-3.7-.921c-.292-.07-.562-.189-.469-.472s.372-.219.59-.219Z" transform="translate(-872.728 -217.591)" fill="#ce41a4"/>
        <path id="Path_20704" data-name="Path 20704" d="M934.743,259.557l3.778.638a.518.518,0,0,1,.405.635.611.611,0,0,1-.66.46l-3.817-.54a.548.548,0,0,1-.393-.674c.063-.287.425-.64.685-.521Z" transform="translate(-875.775 -218.032)" fill="#ce41a4"/>
        <path id="Path_20705" data-name="Path 20705" d="M945.289,260.958s.988,0,1.96,0c.95-.049,1.906-.1,1.906-.1l.043,0a.494.494,0,0,1,.54.487.57.57,0,0,1-.547.545l-2,.1-1.945-.01a.5.5,0,0,1-.523-.512.6.6,0,0,1,.566-.509Z" transform="translate(-878.823 -218.409)" fill="#ce41a4"/>
        <path id="Path_20706" data-name="Path 20706" d="M955.867,259.148a1.9,1.9,0,0,0,.657-.079c.175-.055.424-.062.621-.144s.439-.134.657-.216c.427-.2.878-.363,1.177-.548s.519-.279.519-.279l.044-.02a.534.534,0,0,1,.727.176.521.521,0,0,1-.227.7l-.567.317c-.334.2-.812.4-1.283.617l-.72.27c-.233.094-.435.146-.613.2l-.591.18a.645.645,0,0,1-.725-.43c-.075-.271.324-.507.324-.75Z" transform="translate(-881.91 -217.534)" fill="#ce41a4"/>
        <path id="Path_20707" data-name="Path 20707" d="M964.985,253.052a3.279,3.279,0,0,1,.3-.53,4.2,4.2,0,0,0,.28-.519c.05-.091.091-.191.144-.287.019-.031.065-.136.057-.11l.063-.168c.042-.108.094-.227.124-.325s.046-.183.068-.271a5.278,5.278,0,0,0,.09-.521c.023-.317.029-.529.029-.529v-.026a.563.563,0,0,1,.55-.525.485.485,0,0,1,.518.487s-.006.252-.034.632a6.178,6.178,0,0,1-.114.661l-.106.389c-.04.124-.086.224-.13.338l-.067.166c-.062.131-.07.134-.108.207l-.181.329a5.3,5.3,0,0,1-.332.555l-.337.5a.53.53,0,0,1-.7.215c-.247-.141-.109-.464-.109-.671Z" transform="translate(-884.596 -215.094)" fill="#ce41a4"/>
        <path id="Path_20708" data-name="Path 20708" d="M964.463,243.88a13.233,13.233,0,0,0-.712-1.682c-.494-.72-.922-1.472-.922-1.472l0-.06a.478.478,0,0,1,.2-.669c.248-.162.4-.484.759.155l0,0s.521.745,1.06,1.534c.422.81.835,1.6.835,1.6.128.244-.119.606-.384.743s-.725.106-.845-.141Z" transform="translate(-883.972 -212.391)" fill="#ce41a4"/>
        <path id="Path_20709" data-name="Path 20709" d="M958.288,236.045a.708.708,0,0,1-.613-.071c-.143-.089-.379-.105-.557-.188s-.4-.133-.588-.234a5.659,5.659,0,0,0-.607-.21,2.085,2.085,0,0,0-.536-.147c-.314-.068-.527-.105-.527-.105l-.1-.016a.463.463,0,0,1-.358-.593.561.561,0,0,1,.643-.378l.65.136a2.849,2.849,0,0,1,.634.194,6.622,6.622,0,0,1,.692.286l.656.355a5.285,5.285,0,0,1,.512.332l.479.329c.23.156.405.21.226.439s-.367-.019-.607-.128Z" transform="translate(-881.582 -210.769)" fill="#ce41a4"/>
        <path id="Path_20710" data-name="Path 20710" d="M949.335,236.3a1.976,1.976,0,0,0-.78.243c-.078.051-.294.059-.382.116a3.184,3.184,0,0,0-.294.17c-.152.135-.348.267-.511.411-.153.17-.322.334-.466.494a5.443,5.443,0,0,0-.436.417,2.011,2.011,0,0,1-.407.424l-.031.039a.491.491,0,0,1-.664.192.44.44,0,0,1-.085-.663s.166-.2.39-.505a4.818,4.818,0,0,1,.415-.511c.163-.181.34-.372.514-.565.2-.184.412-.362.605-.53a3.42,3.42,0,0,1,.532-.4l.516-.339a.93.93,0,0,1,.985.209,1.4,1.4,0,0,1,.1.791Z" transform="translate(-878.951 -211.095)" fill="#ce41a4"/>
        <path id="Path_20711" data-name="Path 20711" d="M943.262,244.192a17.059,17.059,0,0,1-.482,1.894c-.222.889-.387,1.824-.387,1.824l.019.058a.545.545,0,0,1-.608.411.45.45,0,0,1-.374-.563s.238-.937.472-1.879c.294-.9.592-1.8.592-1.8.086-.264.268-.518.542-.452s.227.255.227.507Z" transform="translate(-877.879 -213.505)" fill="#ce41a4"/>
        <path id="Path_20712" data-name="Path 20712" d="M942.148,253.913a14.966,14.966,0,0,0-.3,2.12c.014.905-.081,1.942-.081,1.942l-.055.092a.592.592,0,0,1-.531.557.467.467,0,0,1-.534-.431s-.023-.937-.039-1.884c.039-.928.074-1.852.074-1.852a1.08,1.08,0,0,1,.753-.762c.284-.006.507.217.712.217Z" transform="translate(-877.649 -216.365)" fill="#ce41a4"/>
        <path id="Path_20713" data-name="Path 20713" d="M942.228,263.862l.656,3.934a.723.723,0,0,1-.427.748c-.275.064-.548-.014-.6-.273l-.7-3.565c-.051-.26.165-.83.442-.894s1.005-.665.624.049Z" transform="translate(-877.805 -219.168)" fill="#ce41a4"/>
        <path id="Path_20714" data-name="Path 20714" d="M944.449,274.862l1.188,3.4a.468.468,0,0,1-.324.589.486.486,0,0,1-.63-.288l-1.188-3.468a.442.442,0,0,1,.323-.565c.265-.1.405.332.63.332Z" transform="translate(-878.466 -222.308)" fill="#ce41a4"/>
        <path id="Path_20715" data-name="Path 20715" d="M948.008,284.265l.227.524.512,1.138.755,1.663a.49.49,0,0,1-.266.636.484.484,0,0,1-.652-.214l-.757-1.662-.52-1.153-.227-.524a.493.493,0,0,1,.278-.635.485.485,0,0,1,.651.225Z" transform="translate(-879.486 -225.013)" fill="#ce41a4"/>
        <path id="Path_20716" data-name="Path 20716" d="M952.321,293.5l1.69,3.24a.5.5,0,0,1-.89.461l-1.694-3.238a.5.5,0,0,1,.894-.463Z" transform="translate(-880.723 -227.658)" fill="#ce41a4"/>
        <path id="Path_20717" data-name="Path 20717" d="M957.182,302.47l1.9,3.126a.47.47,0,0,1-.189.644.486.486,0,0,1-.665-.14l-1.9-3.124a.472.472,0,0,1,.189-.647.489.489,0,0,1,.669.14Z" transform="translate(-882.117 -230.226)" fill="#ce41a4"/>
        <path id="Path_20718" data-name="Path 20718" d="M962.628,311.1l2.122,2.983a.461.461,0,0,1-.142.646.487.487,0,0,1-.67-.1l-2.126-2.98a.463.463,0,0,1,.142-.649.49.49,0,0,1,.674.1Z" transform="translate(-883.679 -232.697)" fill="#ce41a4"/>
        <path id="Path_20719" data-name="Path 20719" d="M968.824,319.237l2.326,2.823a.468.468,0,0,1-.112.657.5.5,0,0,1-.685-.038l-2.383-2.794a.488.488,0,0,1,.132-.67c.211-.167.615-.2.722.021Z" transform="translate(-885.435 -235.029)" fill="#ce41a4"/>
        <path id="Path_20720" data-name="Path 20720" d="M975.423,327.1l2.354,2.815a.447.447,0,0,1-.092.64.484.484,0,0,1-.666-.048l-2.357-2.812a.449.449,0,0,1,.091-.642.487.487,0,0,1,.67.048Z" transform="translate(-887.342 -237.272)" fill="#ce41a4"/>
        <path id="Path_20721" data-name="Path 20721" d="M981.942,335.053l2.232,2.906a.445.445,0,0,1-.116.631.477.477,0,0,1-.656-.071l-2.235-2.9a.447.447,0,0,1,.116-.634.479.479,0,0,1,.659.071Z" transform="translate(-889.202 -239.54)" fill="#ce41a4"/>
        <path id="Path_20722" data-name="Path 20722" d="M988.113,343.266l2.1,3a.443.443,0,0,1-.141.621.467.467,0,0,1-.644-.1l-2.106-2.994a.446.446,0,0,1,.141-.625.472.472,0,0,1,.648.1Z" transform="translate(-890.962 -241.88)" fill="#ce41a4"/>
        <path id="Path_20723" data-name="Path 20723" d="M993.913,351.732l1.964,3.085a.443.443,0,0,1-.167.61.46.46,0,0,1-.632-.12l-1.966-3.083a.445.445,0,0,1,.166-.614.463.463,0,0,1,.635.121Z" transform="translate(-892.618 -244.293)" fill="#ce41a4"/>
        <path id="Path_20724" data-name="Path 20724" d="M999.319,360.447l1.816,3.172a.443.443,0,0,1-.192.6.452.452,0,0,1-.617-.145l-1.819-3.17a.445.445,0,0,1,.192-.6.455.455,0,0,1,.621.146Z" transform="translate(-894.16 -246.776)" fill="#ce41a4"/>
        <path id="Path_20725" data-name="Path 20725" d="M1004.3,369.4l1.658,3.256a.461.461,0,0,1-.82.416l-1.663-3.253a.463.463,0,0,1,.824-.418Z" transform="translate(-895.583 -249.329)" fill="#ce41a4"/>
        <path id="Path_20726" data-name="Path 20726" d="M1008.844,378.59l1.493,3.336a.44.44,0,0,1-.242.571.435.435,0,0,1-.586-.2l-1.5-3.333a.444.444,0,0,1,.244-.574.438.438,0,0,1,.589.2Z" transform="translate(-896.879 -251.947)" fill="#ce41a4"/>
        <path id="Path_20727" data-name="Path 20727" d="M1012.914,388l1.318,3.41a.441.441,0,0,1-.267.556.427.427,0,0,1-.568-.22l-1.323-3.408a.443.443,0,0,1,.269-.559.429.429,0,0,1,.571.222Z" transform="translate(-898.041 -254.627)" fill="#ce41a4"/>
        <path id="Path_20728" data-name="Path 20728" d="M1016.486,397.612l1.135,3.478a.441.441,0,0,1-.293.539.419.419,0,0,1-.548-.245l-1.138-3.477a.442.442,0,0,1,.294-.542.421.421,0,0,1,.551.246Z" transform="translate(-899.061 -257.367)" fill="#ce41a4"/>
        <path id="Path_20729" data-name="Path 20729" d="M1019.537,407.415l.941,3.544a.44.44,0,0,1-.317.52.411.411,0,0,1-.527-.27l-.946-3.543a.443.443,0,0,1,.319-.523.413.413,0,0,1,.53.271Z" transform="translate(-899.933 -260.16)" fill="#ce41a4"/>
        <path id="Path_20730" data-name="Path 20730" d="M1022.039,417.4l.737,3.6a.438.438,0,0,1-.341.5.4.4,0,0,1-.5-.294l-.742-3.6a.442.442,0,0,1,.342-.5.4.4,0,0,1,.507.3Z" transform="translate(-900.648 -263.004)" fill="#ce41a4"/>
        <path id="Path_20731" data-name="Path 20731" d="M1023.962,427.526l.522,3.643a.44.44,0,0,1-.365.477.4.4,0,0,1-.479-.318l-.527-3.643a.441.441,0,0,1,.367-.48.4.4,0,0,1,.482.319Z" transform="translate(-901.198 -265.89)" fill="#ce41a4"/>
        <path id="Path_20732" data-name="Path 20732" d="M1025.272,437.774s.077.92.155,1.839c.039.454.08.927.1,1.272s.038.577.038.577a.438.438,0,0,1-.394.448.386.386,0,0,1-.447-.347s-.016-.231-.039-.576-.059-.793-.1-1.258c-.079-.92-.158-1.839-.158-1.839a.44.44,0,0,1,.388-.457.389.389,0,0,1,.457.342Z" transform="translate(-901.574 -268.81)" fill="#ce41a4"/>
        <path id="Path_20733" data-name="Path 20733" d="M1025.921,448.122l.046,3.7a.436.436,0,0,1-.411.425.379.379,0,0,1-.422-.366l-.051-3.7a.44.44,0,0,1,.414-.429.382.382,0,0,1,.424.368Z" transform="translate(-901.762 -271.757)" fill="#ce41a4"/>
        <path id="Path_20734" data-name="Path 20734" d="M1025.791,458.528l-.214,3.714a.436.436,0,0,1-.434.4.372.372,0,0,1-.389-.389l.209-3.714a.437.437,0,0,1,.436-.4.374.374,0,0,1,.392.391Z" transform="translate(-901.668 -274.721)" fill="#ce41a4"/>
        <path id="Path_20735" data-name="Path 20735" d="M1024.889,468.952l-.494,3.706a.434.434,0,0,1-.456.363.366.366,0,0,1-.353-.412l.489-3.707a.437.437,0,0,1,.458-.365.368.368,0,0,1,.356.414Z" transform="translate(-901.334 -277.69)" fill="#ce41a4"/>
        <path id="Path_20736" data-name="Path 20736" d="M1023.182,479.342l-.791,3.677a.431.431,0,0,1-.477.326.359.359,0,0,1-.313-.434l.787-3.678a.433.433,0,0,1,.479-.328.36.36,0,0,1,.315.436Z" transform="translate(-900.766 -280.648)" fill="#ce41a4"/>
        <path id="Path_20737" data-name="Path 20737" d="M1020.62,489.633l-1.105,3.621a.429.429,0,0,1-.5.286.353.353,0,0,1-.269-.454l1.1-3.622a.431.431,0,0,1,.5-.287.355.355,0,0,1,.271.457Z" transform="translate(-899.949 -283.578)" fill="#ce41a4"/>
        <path id="Path_20738" data-name="Path 20738" d="M1017.157,499.747l-1.436,3.532a.423.423,0,0,1-.512.241.349.349,0,0,1-.221-.472l1.432-3.534a.426.426,0,0,1,.514-.242.351.351,0,0,1,.223.475Z" transform="translate(-898.872 -286.458)" fill="#ce41a4"/>
        <path id="Path_20739" data-name="Path 20739" d="M1012.877,509.587l-1.46,2.815a.417.417,0,0,1-.524.194.347.347,0,0,1-.172-.488l1.456-2.817a.42.42,0,0,1,.527-.2.348.348,0,0,1,.172.49Z" transform="translate(-897.651 -289.258)" fill="#ce41a4"/>
      </g>
    </g>
    <g id="Group_6784" data-name="Group 6784" transform="translate(323.014 434.181)">
      <path id="Path_20740" data-name="Path 20740" d="M417.017,657.751H406.742a.715.715,0,0,1-.715-.715V626.3a.714.714,0,0,1,.715-.715h10.275a.714.714,0,0,1,.715.715v30.74A.714.714,0,0,1,417.017,657.751Zm-9.561-1.429H416.3V627.011h-8.846Z" transform="translate(-406.027 -581.94)" fill="#fff"/>
      <path id="Path_20741" data-name="Path 20741" d="M443.855,649.76H429.812a.714.714,0,0,1-.715-.715V598.3a.714.714,0,0,1,.715-.715h14.043a.714.714,0,0,1,.715.715v50.745A.714.714,0,0,1,443.855,649.76Zm-13.329-1.429H443.14V599.015H430.526Z" transform="translate(-412.612 -573.949)" fill="#fff"/>
      <path id="Path_20742" data-name="Path 20742" d="M478.723,645.471h-19.5a.714.714,0,0,1-.715-.715V583.276a.714.714,0,0,1,.715-.715h19.5a.714.714,0,0,1,.715.715v61.481A.714.714,0,0,1,478.723,645.471Zm-18.781-1.429h18.066V583.99H459.942Z" transform="translate(-421.009 -569.66)" fill="#fff"/>
      <path id="Path_20743" data-name="Path 20743" d="M526.569,640.318H503.225a.714.714,0,0,1-.715-.715V565.222a.714.714,0,0,1,.715-.715h23.345a.715.715,0,0,1,.715.715V639.6A.715.715,0,0,1,526.569,640.318Zm-22.63-1.429h21.916V565.936H503.939Z" transform="translate(-433.567 -564.507)" fill="#fff"/>
    </g>
    <g id="Group_6785" data-name="Group 6785" transform="translate(188.047 172.213)">
      <path id="Path_20744" data-name="Path 20744" d="M236.417,223.526c-1.553-13.278,13.562-32.011,40.9-15.462.752-6.286,35.053-25.845,50.941,15.3,2.717-9.98,27.614-4.975,32.093,11.893,9.358-4.164,31.867,16.741,2.079,20.349-38.041,4.609-125.2,3.275-140.826-19.552S236.417,223.526,236.417,223.526Z" transform="translate(-217.145 -197.893)" opacity="0.4" fill="url(#linear-gradient-94)"/>
      <path id="Path_20745" data-name="Path 20745" d="M804.428,218.9c-.858-7.339,7.5-17.692,22.608-8.545.415-3.475,19.374-14.285,28.155,8.458,1.5-5.516,15.263-2.75,17.738,6.573,5.172-2.3,17.613,9.253,1.149,11.247-21.026,2.547-69.2,1.81-77.835-10.807S804.428,218.9,804.428,218.9Z" transform="translate(-381.74 -199.846)" opacity="0.4" fill="url(#linear-gradient-95)"/>
    </g>
    <g id="Group_6787" data-name="Group 6787" transform="translate(244.99 162.316)">
      <g id="Group_6786" data-name="Group 6786" transform="translate(0)">
        <path id="Path_20746" data-name="Path 20746" d="M315.161,248.816c-1.746,0-2.833-.321-3.293-.965-2.732-3.834-18.268-41.782-14.425-49.055a.358.358,0,0,1,.2-.171c4.912-1.721,48.113-16.74,52.079-14.319,2.185,1.334,5.755,12.723,8.367,22.938,2.565,10.032,4.988,22.025,4.244,24.646-.73,2.571-11.693,6.993-16.373,8.774-9.233,3.515-19.383,6.51-25.858,7.63A30.152,30.152,0,0,1,315.161,248.816Zm-17.147-49.565c-3.213,6.858,11.063,43.451,14.437,48.185.278.389,1.566,1.185,7.529.154,14.24-2.464,40.721-12.566,41.665-15.9.6-2.1-1.19-12.312-4.249-24.274-3.189-12.469-6.422-21.513-8.048-22.5C346.569,183.218,317.181,192.542,298.013,199.251Z" transform="translate(-296.835 -184.042)" fill="url(#linear-gradient-81)"/>
      </g>
      <path id="Path_20747" data-name="Path 20747" d="M322.689,240.787a2.09,2.09,0,0,1-1.069-.191c-2.139-1.436-9.4-17.736-8.613-25.309.2-1.96.943-3.209,2.192-3.712l1.378-.558c4.4-1.782,12.585-5.1,19.7-7.46a8.347,8.347,0,0,0,.247-2.139c.077-1.6.149-2.512.713-2.687,8.419-2.623,10.055-2.013,10.54-1.188,1.341,2.285,13.222,29.877,10.943,32.237C356.766,231.8,328.917,240.785,322.689,240.787Zm-7.223-28.549c-.985.4-1.573,1.448-1.749,3.123-.787,7.527,6.578,23.485,8.3,24.642.778.522,6.707-.532,18.2-4.063,9.056-2.782,17.122-5.768,17.981-6.657.186-.192.855-1.826-4.192-15.167-2.9-7.67-6.047-14.838-6.854-16.212-.224-.385-1.623-1.01-9.71,1.509a9.49,9.49,0,0,0-.211,2.04c-.08,1.648-.154,2.589-.736,2.782-7.088,2.353-15.261,5.665-19.652,7.444Z" transform="translate(-301.434 -187.694)" fill="url(#linear-gradient-81)"/>
      <path id="Path_20748" data-name="Path 20748" d="M318.951,224.005a.357.357,0,0,1-.342-.254c-.109-.364-.083-.912.667-1.463a6.339,6.339,0,0,1,1.811-.825.357.357,0,0,1,.207.684,5.427,5.427,0,0,0-1.595.718c-.332.243-.469.472-.406.68a.356.356,0,0,1-.239.445A.347.347,0,0,1,318.951,224.005Z" transform="translate(-303.037 -194.719)" fill="url(#linear-gradient-82)"/>
      <path id="Path_20749" data-name="Path 20749" d="M328.52,217.957a.358.358,0,0,1-.155-.68c.066-.031,6.605-3.16,11.842-4.047a.362.362,0,0,1,.412.293.357.357,0,0,1-.293.412c-5.136.869-11.585,3.955-11.65,3.986A.354.354,0,0,1,328.52,217.957Z" transform="translate(-305.778 -192.373)" fill="url(#linear-gradient-81)"/>
    </g>
    <g id="Group_6790" data-name="Group 6790" transform="translate(557.324 259.734)">
      <g id="Group_6788" data-name="Group 6788" transform="translate(0 0)">
        <path id="Path_20750" data-name="Path 20750" d="M811.959,334.895a2.717,2.717,0,0,0-2.1-.724c-8.261.742-21.236-7.736-33.746-13.542a2.722,2.722,0,0,0-2.776.288c-11.2,8.372-29.771,10.106-36.217,10.46a2.719,2.719,0,0,0-2.553,2.436c-5.862,56.619,31,77.135,38.648,80.757a2.727,2.727,0,0,0,2.6-.151c38.105-23.736,36.475-54.6,37-77.474A2.722,2.722,0,0,0,811.959,334.895Z" transform="translate(-733.936 -320.375)" fill="url(#linear-gradient-100)"/>
        <path id="Path_20751" data-name="Path 20751" d="M775.185,413.992a.716.716,0,0,1-.4-.122,94.549,94.549,0,0,1-19.873-19.57c-8.6-11.423-17.919-29.76-13.52-52.244a.723.723,0,0,1,.753-.576,66.082,66.082,0,0,0,14.123-.854c6.971-1.189,16.4-4.119,21.728-11.329a.717.717,0,0,1,.554-.289.708.708,0,0,1,.569.255c.1.114,9.632,11.421,17.154,14.128,7.482,2.694,12.955,1.545,13.01,1.533a.714.714,0,0,1,.868.68c.01.431.625,43.382-34.553,68.256A.714.714,0,0,1,775.185,413.992Zm-32.507-71.051c-4.009,21.673,5.02,39.383,13.349,50.464a94.478,94.478,0,0,0,19.156,19c31.493-22.578,33.433-59.936,33.536-65.939a28.432,28.432,0,0,1-12.931-1.726c-6.875-2.475-14.964-11.338-17.188-13.883-4.527,5.631-12.152,9.491-22.124,11.187A68.026,68.026,0,0,1,742.677,342.941Z" transform="translate(-735.742 -322.839)" fill="#fff"/>
      </g>
      <g id="Group_6789" data-name="Group 6789" transform="translate(22.943 21.526)">
        <path id="Path_20752" data-name="Path 20752" d="M794.176,401.191H770.759a3.226,3.226,0,0,1-3.46-3h0l-1.25-22.23a3.154,3.154,0,0,1,.911-2.4,3.506,3.506,0,0,1,2.459-1.124l24.775-.809a3.718,3.718,0,0,1,2.654.973,3.6,3.6,0,0,1,1.319,2.49V398.27C798.168,400.188,796.16,401.191,794.176,401.191Zm-25.45-3.078a1.833,1.833,0,0,0,2.034,1.649h23.417c.991,0,2.562-.405,2.562-1.491V375.094a2.4,2.4,0,0,0-.883-1.463,2.365,2.365,0,0,0-1.614-.572l-24.775.809a2.066,2.066,0,0,0-1.451.661,1.729,1.729,0,0,0-.539,1.352Z" transform="translate(-766.044 -356.531)" fill="#fff"/>
        <path id="Path_20753" data-name="Path 20753" d="M774.558,367.74a.715.715,0,0,1-.706-.612c-.8-5.412-.032-9.675,2.266-12.671a10.135,10.135,0,0,1,6.352-3.863c6.517-.761,11.432,3.092,12.823,10.052a.7.7,0,0,1,.012.086l.427,5.566a.715.715,0,0,1-.658.767.722.722,0,0,1-.767-.657l-.424-5.524c-1.263-6.23-5.469-9.544-11.248-8.871a8.854,8.854,0,0,0-5.4,3.336c-2.04,2.677-2.7,6.57-1.969,11.571a.715.715,0,0,1-.6.811A.739.739,0,0,1,774.558,367.74Z" transform="translate(-768.186 -350.5)" fill="#fff"/>
        <path id="Path_20754" data-name="Path 20754" d="M780.293,369.947a.714.714,0,0,1-.705-.607c-.037-.239-.865-5.877,1.854-9.043a6.121,6.121,0,0,1,4.883-2.066,6.029,6.029,0,0,1,4.918,2.087c2.511,3.053,1.511,8.312,1.468,8.535a.715.715,0,0,1-1.4-.275c.009-.048.911-4.825-1.172-7.354a4.614,4.614,0,0,0-3.812-1.563,4.7,4.7,0,0,0-3.8,1.565c-2.291,2.665-1.536,7.847-1.528,7.9a.715.715,0,0,1-.6.814A.7.7,0,0,1,780.293,369.947Z" transform="translate(-769.868 -352.707)" fill="#fff"/>
        <path id="Path_20755" data-name="Path 20755" d="M786.419,398.953h-.214a2.412,2.412,0,0,1-2.314-2.6V387.27a4.558,4.558,0,0,1-2.775-3.911c0-2.509,2.444-4.55,5.449-4.55s5.443,2.041,5.443,4.55a4.217,4.217,0,0,1-3.115,4.125v8.874A2.54,2.54,0,0,1,786.419,398.953Zm-1.739-12.891a.714.714,0,0,1,.64.707v9.589c0,.562.277,1.166.885,1.166h.214a1.112,1.112,0,0,0,1.045-1.166v-9.407a.714.714,0,0,1,.539-.692c1.686-.427,2.577-1.43,2.577-2.9,0-1.721-1.8-3.12-4.014-3.12s-4.02,1.4-4.02,3.12A3.212,3.212,0,0,0,784.68,386.062Z" transform="translate(-770.346 -358.581)" fill="#fff"/>
      </g>
    </g>
  </g>
</svg>
