<svg xmlns="http://www.w3.org/2000/svg" width="111.185" height="127.437" viewBox="0 0 111.185 127.437">
  <g id="Group_6800" data-name="Group 6800" transform="translate(-707.552 -406.636)">
    <path id="Path_20761" data-name="Path 20761" d="M761.882,529.87c2.057-10.071-2.732-16.934-10.184-22.94-19.609-15.8-17.507-44.413-2.3-58.978a39.588,39.588,0,0,1,67.2,30.5A38.229,38.229,0,0,1,803,506.58c-2.461,2.166-4.842,4.441-7.092,6.825a12.925,12.925,0,0,0-3.549,9.462c.089,4.794-.039,9.591.05,14.385.039,2.089-.8,3.012-2.842,2.76-1.831-.226-2.783.42-3.547,2.228a9.773,9.773,0,0,1-17.942-.127c-.741-1.785-1.644-2.3-3.342-2.092-2.251.28-2.995-.807-2.882-2.96C761.98,534.67,761.882,532.268,761.882,529.87Zm15.17-9.611c3.195,0,6.39-.051,9.583.023,1.452.033,2.255-.308,2.56-1.923a15.169,15.169,0,0,1,4.3-7.821c2.485-2.526,5.108-4.917,7.691-7.346,3.58-3.368,6.91-6.979,8.739-11.6,5.219-13.183,4.276-25.877-4.517-37.2-8.865-11.414-20.942-15.985-35.123-13.251-13.843,2.668-23.362,11.129-27.381,24.661-3.956,13.321-1.688,25.653,8.556,35.811,2.078,2.06,4.285,3.989,6.414,6,3.189,3.011,6.183,6.206,7.111,10.668.364,1.75,1.222,2.046,2.752,2C770.839,520.2,773.946,520.259,777.052,520.259Zm-.033,8.053c3.28,0,6.562-.072,9.839.03,1.7.052,1.856-.833,1.808-2.151-.042-1.179.163-2.284-1.668-2.265q-9.839.1-19.679,0c-1.606-.015-1.924.745-1.923,2.119,0,1.453.276,2.355,2.05,2.3C770.635,528.237,773.828,528.312,777.02,528.311Zm-.108,8.041c3.279,0,6.562-.094,9.836.036,1.862.074,1.932-.89,1.932-2.293,0-1.344-.159-2.126-1.838-2.1q-9.7.125-19.407,0c-1.779-.023-2.015.83-2.045,2.281-.035,1.64.631,2.156,2.218,2.108C770.707,536.287,773.811,536.353,776.912,536.353Zm-.158,8.111a6.513,6.513,0,0,0,4.734-1.854c.5-.485,1.065-1.051.825-1.839-.27-.887-1.1-.738-1.786-.745-1.768-.018-3.541-.086-5.3.02-1.157.07-2.984-.693-3.3.736-.364,1.633,1.369,2.482,2.737,3.105A10.936,10.936,0,0,0,776.754,544.464Z" transform="translate(-13.921 -14.001)" fill="#555"/>
    <path id="Path_20762" data-name="Path 20762" d="M746.582,438.724a1.677,1.677,0,0,1-.809,1.678,1.769,1.769,0,0,1-2.214-.217c-1.839-1.79-3.654-3.606-5.425-5.463a1.658,1.658,0,0,1-.019-2.405,1.525,1.525,0,0,1,2.141-.422,40.817,40.817,0,0,1,6.178,6.173C746.581,438.247,746.552,438.574,746.582,438.724Z" transform="translate(-13.975 -11.61)" fill="#0069ff"/>
    <path id="Path_20763" data-name="Path 20763" d="M882.592,574.677a1.827,1.827,0,0,1-2.956,1.5,75.159,75.159,0,0,1-5.627-5.62,1.71,1.71,0,0,1,.1-2.421,1.518,1.518,0,0,1,2.167-.254c2.069,1.922,4.028,3.963,6,5.987A1.959,1.959,0,0,1,882.592,574.677Z" transform="translate(-77.187 -74.815)" fill="#0069ff"/>
    <path id="Path_20764" data-name="Path 20764" d="M877.563,433.6a4.764,4.764,0,0,1-.665,1.229c-1.706,1.776-3.452,3.514-5.207,5.243a1.719,1.719,0,0,1-2.581.135,1.67,1.67,0,0,1-.1-2.578c1.747-1.857,3.571-3.643,5.4-5.423a1.72,1.72,0,0,1,2.186-.277A2.066,2.066,0,0,1,877.563,433.6Z" transform="translate(-74.813 -11.637)" fill="#0069ff"/>
    <path id="Path_20765" data-name="Path 20765" d="M734.405,576.679a1.815,1.815,0,0,1-1.4-2.921,80.438,80.438,0,0,1,5.753-5.807,1.623,1.623,0,0,1,2.2.064,1.548,1.548,0,0,1,.453,2.131,40.509,40.509,0,0,1-6.316,6.313A1.953,1.953,0,0,1,734.405,576.679Z" transform="translate(-11.649 -74.824)" fill="#0069ff"/>
    <path id="Path_20766" data-name="Path 20766" d="M903.664,507.253c1.28.377,3.922-1,4,1.681.086,2.9-2.627,1.746-4.268,1.96a15.211,15.211,0,0,1-2.635,0c-1.241-.058-2.014-.682-1.951-1.981.058-1.19.868-1.644,1.973-1.657C901.663,507.244,902.543,507.253,903.664,507.253Z" transform="translate(-88.93 -46.772)" fill="#0069ff"/>
    <path id="Path_20767" data-name="Path 20767" d="M808.119,411.077c0-.793.009-1.587,0-2.38-.016-1.261.542-2.087,1.848-2.06s1.83.9,1.843,2.123c.015,1.5,0,3,0,4.5,0,1.318-.53,2.36-1.92,2.353-1.442-.008-1.843-1.109-1.782-2.416C808.145,412.49,808.118,411.783,808.119,411.077Z" transform="translate(-46.756)" fill="#0069ff"/>
    <path id="Path_20768" data-name="Path 20768" d="M712.333,507.26c1.338.41,4.118-1.042,4.069,1.884-.044,2.574-2.614,1.595-4.219,1.768a19.785,19.785,0,0,1-2.37.008c-1.292-.017-2.307-.446-2.26-1.94.042-1.343.982-1.736,2.179-1.722C710.524,507.268,711.314,507.26,712.333,507.26Z" transform="translate(0 -46.784)" fill="#0069ff"/>
    <path id="Path_20769" data-name="Path 20769" d="M763.258,498.8c-2.3.687-3.422-.809-4.074-3.027-.274-.935-.6-1.856-.911-2.778a3.3,3.3,0,0,1,1.562-4.456c3.487-2.181,3.452-3.458-.069-5.692-1.736-1.1-2.244-2.348-1.587-4.211.382-1.086.765-2.175,1.063-3.285.571-2.126,1.8-2.916,4.085-2.786,3.893.221,4.719-.961,3.287-4.555-.8-2-.531-3.38,1.294-4.518a32.98,32.98,0,0,0,2.792-2.033c1.733-1.352,3.233-1.217,4.977.214,2.855,2.343,4.4,1.863,5.259-1.613.534-2.161,1.555-3.24,3.808-3.125,1.148.059,2.3,0,3.453-.037,2.167-.073,3.333.878,3.916,3.054.965,3.6,2.341,4.058,5.165,1.708,1.828-1.521,3.395-1.624,5.2-.192.9.715,1.836,1.4,2.8,2.024,1.691,1.1,1.944,2.425,1.215,4.319-1.435,3.732-.554,4.948,3.38,4.657,2.138-.158,3.379.537,3.941,2.585.3,1.108.673,2.2,1.081,3.277.745,1.959.224,3.285-1.589,4.455-3.426,2.212-3.443,3.4-.077,5.5,1.942,1.209,2.442,2.621,1.664,4.671-.376.991-.7,2.008-.977,3.031-.576,2.123-1.847,2.91-4.1,2.788-3.9-.211-4.7.905-3.25,4.481.812,2,.507,3.379-1.249,4.539-.886.585-1.765,1.192-2.59,1.86-1.864,1.508-3.5,1.475-5.405-.153-2.647-2.257-4.183-1.727-5.036,1.673-.568,2.264-1.685,3.386-4.058,3.186a15.549,15.549,0,0,0-2.922,0c-2.463.26-3.7-.806-4.289-3.214-.8-3.238-2.437-3.839-4.869-1.715-2.071,1.809-3.847,1.809-5.848.129a19.794,19.794,0,0,0-2.147-1.565c-1.847-1.167-2.314-2.558-1.428-4.7C768.144,499.856,767.3,498.784,763.258,498.8Zm44.637-22.538a5.825,5.825,0,0,1-5.658-7.529c.473-1.325.794-2.417-.657-3.48-1.48-1.085-2.388-.331-3.5.5a5.841,5.841,0,0,1-8.989-2.87c-.408-1.336-.736-2.423-2.549-2.439s-2.174,1.034-2.576,2.394a5.849,5.849,0,0,1-8.944,3.016c-1.074-.791-1.966-1.715-3.481-.559-1.4,1.067-1.19,2.1-.686,3.473a5.764,5.764,0,0,1-5.355,7.556c-1.422.01-2.726-.17-3.359,1.737-.7,2.1.913,2.418,1.964,3.178,2.76,2,2.714,6.972-.075,8.991-.981.709-2.472,1.021-1.9,2.982.6,2.045,1.993,1.9,3.52,1.878a5.739,5.739,0,0,1,5.327,7.354c-.518,1.437-.82,2.582.743,3.688s2.413.093,3.457-.693a5.871,5.871,0,0,1,8.878,2.82c.394,1.285.562,2.493,2.455,2.526,1.945.035,2.309-1.055,2.737-2.525a5.839,5.839,0,0,1,8.859-2.887c1.026.752,1.844,1.857,3.437.7,1.54-1.121,1.284-2.242.76-3.682a5.691,5.691,0,0,1,5.268-7.391c1.419.026,2.721.232,3.414-1.656.749-2.042-.7-2.47-1.8-3.241a5.772,5.772,0,0,1,.075-9.114c1.03-.716,2.4-1.1,1.745-3.019C810.369,476.095,809.156,476.085,807.895,476.261Z" transform="translate(-23.412 -23.37)" fill="#0069ff"/>
    <path id="Path_20770" data-name="Path 20770" d="M788.114,499.5a12.486,12.486,0,0,1,17.479-11.418c1.237.536,2.713,1.085,2.088,2.811-.647,1.787-2.022,1.167-3.332.659-5.3-2.05-10.688.369-12.266,5.457a9.077,9.077,0,0,0,6.771,11.429c5.25,1.028,9.941-2.527,10.639-8.162.177-1.425.575-2.553,2.188-2.335,1.67.225,1.61,1.62,1.514,2.907a12.65,12.65,0,0,1-13.1,11.409A12.456,12.456,0,0,1,788.114,499.5Z" transform="translate(-37.46 -37.382)" fill="#0069ff"/>
  </g>
</svg>
