<svg xmlns="http://www.w3.org/2000/svg" width="27.998" height="28.002" viewBox="0 0 27.998 28.002">
  <g id="Group_6354" data-name="Group 6354" transform="translate(-1943.002 -2162.998)">
    <path id="Subtraction_1" data-name="Subtraction 1" d="M15719,1573h-18a5.006,5.006,0,0,1-5-5v-18a5.006,5.006,0,0,1,5-5h18a5.006,5.006,0,0,1,5,5v18A5.006,5.006,0,0,1,15719,1573Zm-14.5-15.8a.5.5,0,0,0-.5.5v2.6a.5.5,0,0,0,.5.5h2.5v6.7a.5.5,0,0,0,.5.5h3a.5.5,0,0,0,.5-.5v-6.7h2.63a.5.5,0,0,0,.48-.367l.718-2.6a.511.511,0,0,0-.083-.434.5.5,0,0,0-.4-.2H15711v-2.7a1,1,0,0,1,.991-.9h2.51a.5.5,0,0,0,.5-.5v-2.6a.5.5,0,0,0-.5-.5h-2.5c-.079,0-.16-.006-.24-.006a4.772,4.772,0,0,0-4.76,4.509v2.7Z" transform="translate(-13753 618)" fill="#00b1f9"/>
  </g>
</svg>
