<svg xmlns="http://www.w3.org/2000/svg" width="28.003" height="27.999" viewBox="0 0 28.003 27.999">
  <g id="Group_6352" data-name="Group 6352" transform="translate(-1996.999 -2166.002)">
    <path id="Subtraction_3" data-name="Subtraction 3" d="M15673,1576h-18a5.006,5.006,0,0,1-5-5v-18a5,5,0,0,1,5-5h18a5,5,0,0,1,5,5v18A5.006,5.006,0,0,1,15673,1576Zm-5.858-13.724a1.933,1.933,0,0,1,.208.011,2,2,0,0,1,1.747,2v5.807a.9.9,0,0,0,.9.9h2.1a.9.9,0,0,0,.9-.9v-5.878a5.792,5.792,0,0,0-1.72-4.124,5.869,5.869,0,0,0-4.1-1.7h-.059a5.869,5.869,0,0,0-4.1,1.7,5.792,5.792,0,0,0-1.72,4.124v5.878a.9.9,0,0,0,.9.9h2.1a.9.9,0,0,0,.9-.9v-5.878a1.947,1.947,0,0,1,1.944-1.943Zm-11.242-2.979a.9.9,0,0,0-.9.9v9.9a.9.9,0,0,0,.9.9h2.7a.9.9,0,0,0,.9-.9v-9.9a.9.9,0,0,0-.9-.9Zm1.35-6.3a2.251,2.251,0,1,0,2.251,2.251A2.253,2.253,0,0,0,15657.25,1553Z" transform="translate(-13653 618)" fill="#00b1f9"/>
  </g>
</svg>
