<svg xmlns="http://www.w3.org/2000/svg" width="102.948" height="103.579" viewBox="0 0 102.948 103.579">
  <g id="Group_6799" data-name="Group 6799" transform="translate(-895.233 -443.839)">
    <path id="Path_20756" data-name="Path 20756" d="M984.375,528.121c-.179,4.521-9.578,9.7-14.124,6.655-3.513-2.351-6.71-3-10.8-1.263a9.575,9.575,0,0,0-5.931,6.279c-2.076,6.189-2.712,6.31-10.221,6.1-4.644-.129-6.825-2.1-7.763-6.723-1.556-7.665-8.388-10.667-15.434-7.284-5.439,2.612-6.034,2.47-10.494-2.5-4.487-5-4.573-5.63-1.46-10.722,4.491-7.347,1.416-14.681-6.982-16.671-2.918-.691-4.626-2.336-4.408-5.553a37.7,37.7,0,0,0,.043-4.145c-.19-4.427,1.744-6.75,6.239-7.7,8.575-1.823,11.229-7.69,7.518-15.66-2.368-5.085-2.093-6.085,2.89-10.505,4.691-4.161,5.561-4.265,10.465-1.256,7.266,4.458,13.276,2.36,16.131-5.633,2-5.6,10.94-8.1,15.614-4.374,1.558,1.241,1.68,3.074,2.093,4.82,2.058,8.689,8.147,11.714,16.009,7.489,4.033-2.166,6.576-1.18,9.317,1.936,5.18,5.887,5.385,6.27,2.649,10.941-4.786,8.174-2.757,13.776,6.205,17.126,4.774,1.784,4.977,2.421,4.71,9.921-.145,4.061-1.4,6.652-5.843,7.608-8.644,1.858-11.382,7.836-7.741,15.89A9.151,9.151,0,0,1,984.375,528.121ZM916.413,495.07c-.739,17.707,13.531,31.452,33.942,31.239,5.949-.062,12.032-3.46,16.726-7.968,6.018-5.779,9.627-12.747,10.023-21.174a30.365,30.365,0,1,0-60.691-2.1Z" transform="translate(0)" fill="none" stroke="#707070" stroke-width="3"/>
    <path id="Path_20757" data-name="Path 20757" d="M969.6,503.846c0-3.591.12-7.187-.05-10.77-.107-2.257.783-2.738,2.872-2.8,8.074-.244,8.075-.318,8.074,7.554,0,5.524-.066,11.049.005,16.573.027,2.074-.249,3.143-2.862,3.212-8.03.214-8.026.365-8.034-7.553C969.6,507.989,969.6,505.918,969.6,503.846Z" transform="translate(-12.325 -7.585)" fill="#0069ff"/>
    <path id="Path_20758" data-name="Path 20758" d="M951.6,510.535c0-.412,0-.825,0-1.238-.029-8.828-.035-8.765,8.645-8.041,1.8.15,2.386.784,2.362,2.485-.06,4.4-.082,8.8,0,13.2.033,1.763-.625,2.564-2.376,2.467a3.273,3.273,0,0,0-.413.009C951.628,520.017,951.628,520.017,951.6,510.535Z" transform="translate(-9.288 -9.406)" fill="#0069ff"/>
    <path id="Path_20759" data-name="Path 20759" d="M937.171,494.77c4.734-3.54,9.492-7.05,14.183-10.649.951-.729,2.638-1.137,1.71-3.145-.552-1.195.637-1.18,1.45-1.222l9.263-.474c-1.566,3.221-2.87,5.92-4.194,8.611-.258.523-.509,1.709-1.264.855-2.129-2.407-3.82-.218-5.5.45-5.091,2.03-10.088,4.3-15.122,6.47Z" transform="translate(-6.846 -5.735)" fill="#0069ff"/>
    <path id="Path_20760" data-name="Path 20760" d="M943.921,515.062c-.012,5.793-.044,5.385-6.428,5.9-6.2.5-4.383-3.633-4.468-6.642-.14-4.88-.006-4.487,6.877-4.994C945.353,508.92,943.7,512.4,943.921,515.062Z" transform="translate(-6.112 -10.816)" fill="#0069ff"/>
  </g>
</svg>
