<svg xmlns="http://www.w3.org/2000/svg" width="18.444" height="21.961" viewBox="0 0 18.444 21.961">
  <g id="reading-book" transform="translate(-40.994)">
    <path id="Path_27947" data-name="Path 27947" d="M59.438,14.155a2.148,2.148,0,0,0-1.716-2.1V9.737a.643.643,0,0,0-.869-.6l-1.228.461a7.5,7.5,0,0,0-2.861-1.857,4.289,4.289,0,1,0-5.1,0,7.5,7.5,0,0,0-2.861,1.857l-1.228-.461a.643.643,0,0,0-.869.6v2.317a2.145,2.145,0,0,0,0,4.2v2.488a.643.643,0,0,0,.417.6L49.99,21.92a.651.651,0,0,0,.452,0L57.3,19.347a.643.643,0,0,0,.417-.6V16.256A2.148,2.148,0,0,0,59.438,14.155ZM47.214,4.289a3,3,0,1,1,3,3A3.006,3.006,0,0,1,47.214,4.289Zm3,4.289A6.21,6.21,0,0,1,54.287,10.1l-4.071,1.526L46.146,10.1A6.21,6.21,0,0,1,50.216,8.579Zm-7.935,5.576a.859.859,0,0,1,.858-.858h.429v1.716h-.429A.859.859,0,0,1,42.281,14.155ZM44,16.278a1.074,1.074,0,0,0,.858-1.051V13.082A1.074,1.074,0,0,0,44,12.032V10.665l5.576,2.091V20.39L44,18.3Zm6.863,4.112V12.756l5.576-2.091v1.366a1.074,1.074,0,0,0-.858,1.051v2.145a1.074,1.074,0,0,0,.858,1.051V18.3Zm6.434-5.377h-.429V13.3h.429a.858.858,0,0,1,0,1.716Z" fill="#ea5e2a"/>
  </g>
</svg>
