<svg xmlns="http://www.w3.org/2000/svg" width="27.999" height="28.003" viewBox="0 0 27.999 28.003">
  <g id="Group_6353" data-name="Group 6353" transform="translate(-1967.001 -2165.999)">
    <path id="Subtraction_2" data-name="Subtraction 2" d="M15693,1576h-18a5.007,5.007,0,0,1-5-5v-18a5,5,0,0,1,5-5h18a5,5,0,0,1,5,5v18A5.007,5.007,0,0,1,15693,1576Zm-17.32-20.717a.412.412,0,0,0-.133.022.424.424,0,0,0-.3.362,9.682,9.682,0,0,0,4.6,10.05,6.7,6.7,0,0,1-4.472,2.281.449.449,0,0,0-.138.839,11.02,11.02,0,0,0,4.838,1.162c.105,0,.237.008.366.008A11.07,11.07,0,0,0,15691.52,1559a8.135,8.135,0,0,0,1.481-2.837.44.44,0,0,0-.426-.557.457.457,0,0,0-.2.045,1.854,1.854,0,0,1-.813.186,1.893,1.893,0,0,1-1.345-.565,3.912,3.912,0,0,0-2.754-1.265l-.129,0a3.861,3.861,0,0,0-2.7,1.1,4.133,4.133,0,0,0-1.15,3.9c-.2.012-.387.017-.565.017-2.661,0-4.861-1.139-6.924-3.586A.432.432,0,0,0,15675.681,1555.285Z" transform="translate(-13703 618)" fill="#00b1f9"/>
  </g>
</svg>
